<svg id="Layer_1" enable-background="new 0 0 512 512" viewBox="0 0 512 512" xmlns="http://www.w3.org/2000/svg"><g><g clip-rule="evenodd" fill-rule="evenodd"><path d="m481 172.3h-328.9v252.5h328.9c0-84.1 0-168.3 0-252.5z" fill="#fcb13b"/><path d="m31 337.1h114.2v129.4h-114.2z" fill="#f499c1"/><path d="m145.2 337.1h160.5v129.4h-160.5z" fill="#f499c1"/><path d="m152.1 45.4h328.9v126.9c-109.6 0-219.3 0-328.9 0 0-42.3 0-84.6 0-126.9z" fill="#b5b682"/><path d="m83.4 207.7h160.5v129.5h-160.5z" fill="#f499c1"/><path d="m143.8 237.9h39.7c8.1 0 14.7 6.6 14.7 14.7 0 8.1-6.6 14.7-14.7 14.7h-39.7c-8.1 0-14.7-6.6-14.7-14.7 0-8.1 6.6-14.7 14.7-14.7z" fill="#fcb13b"/><path d="m205.6 365.6h39.7c8.1 0 14.7 6.6 14.7 14.7 0 8.1-6.6 14.7-14.7 14.7h-39.7c-8.1 0-14.7-6.6-14.7-14.7 0-8.1 6.6-14.7 14.7-14.7z" fill="#fcb13b"/><path d="m68.2 365.6h39.7c8.1 0 14.7 6.6 14.7 14.7 0 8.1-6.6 14.7-14.7 14.7h-39.7c-8.1 0-14.7-6.6-14.7-14.7.1-8.1 6.7-14.7 14.7-14.7z" fill="#fcb13b"/></g><path d="m68.2 359.6h39.7c18.2 0 27.7 22.2 14.6 35.3-3.8 3.7-8.9 6.1-14.6 6.1h-39.7c-18.2 0-27.7-22.2-14.6-35.3 3.8-3.8 9-6.1 14.6-6.1zm39.7 12h-39.7c-7.6 0-11.6 9.3-6.1 14.8 1.6 1.6 3.7 2.6 6.1 2.6h39.7c7.6 0 11.7-9.3 6.1-14.8-1.5-1.6-3.7-2.6-6.1-2.6zm97.7-12h39.7c18.2 0 27.7 22.2 14.6 35.3-3.7 3.7-8.9 6.1-14.6 6.1h-39.7c-18.2 0-27.7-22.2-14.6-35.3 3.7-3.8 8.9-6.1 14.6-6.1zm39.7 12h-39.7c-7.6 0-11.7 9.3-6.1 14.8 1.6 1.6 3.7 2.6 6.1 2.6h39.7c7.6 0 11.6-9.3 6.1-14.8-1.6-1.6-3.7-2.6-6.1-2.6zm-101.5-139.7h39.7c18.2 0 27.7 22.2 14.6 35.3-3.7 3.7-8.9 6.1-14.6 6.1h-39.7c-18.2 0-27.7-22.2-14.6-35.3 3.7-3.7 8.9-6.1 14.6-6.1zm39.7 12h-39.7c-7.6 0-11.7 9.3-6.1 14.8 1.6 1.6 3.7 2.6 6.1 2.6h39.7c7.6 0 11.6-9.2 6.1-14.8-1.6-1.6-3.8-2.6-6.1-2.6zm54.4 87.2v-117.4h-148.5v117.4zm-160.5 0v-123.4c0-3.3 2.7-6 6-6h62.7v-156.2c0-3.3 2.7-6 6-6h328.9c3.3 0 6 2.7 6 6v379.4c0 3.3-2.7 6-6 6h-169.3v35.7c0 3.3-2.7 6-6 6h-274.7c-3.3 0-6-2.7-6-6v-129.5c0-3.3 2.7-6 6-6zm80.7-129.4h85.8c3.3 0 6 2.7 6 6v123.4h55.8c3.3 0 6 2.7 6 6v81.8h163.3v-240.6h-316.9zm121.2-70.2c2.6 2 3.1 5.8 1.1 8.4s-5.8 3.1-8.4 1.1l-35.7-27.3c-3.2-2.5-3.1-7.2.1-9.6l35.6-27.3c2.6-2 6.4-1.5 8.4 1.1s1.5 6.4-1.1 8.4l-29.5 22.6zm50.1-56.8c1.6-2.9 5.3-3.9 8.2-2.2 2.9 1.6 3.8 5.3 2.2 8.2l-36 62.3c-1.7 2.9-5.3 3.9-8.2 2.2-2.9-1.6-3.8-5.3-2.2-8.2zm31.7 66.3c-2.6 2-6.4 1.5-8.4-1.1s-1.5-6.4 1.1-8.4l29.5-22.6-29.5-22.6c-2.6-2-3.1-5.8-1.1-8.4s5.8-3.1 8.4-1.1l35.6 27.2c3.1 2.4 3.3 7.1.1 9.6zm79.9 185.5c3.3 0 6 2.7 6 6s-2.7 6-6 6h-71.4c-3.3 0-6-2.7-6-6s2.7-6 6-6zm0-39.5c3.3 0 6 2.7 6 6s-2.7 6-6 6h-142.8c-3.3 0-6-2.7-6-6s2.7-6 6-6zm0-39.5c3.3 0 6 2.7 6 6s-2.7 6-6 6h-142.8c-3.3 0-6-2.7-6-6s2.7-6 6-6zm0-39.5c3.3 0 6 2.7 6 6s-2.7 6-6 6h-142.8c-3.3 0-6-2.7-6-6s2.7-6 6-6zm34-156.6h-316.9v114.9h316.9zm-335.8 409.2v-117.5h-102.2v117.4h102.2zm160.5-117.5h-148.5v117.4h148.5z"/></g></svg>