<svg enable-background="new 0 0 512 512" height="512" viewBox="0 0 512 512" width="512" xmlns="http://www.w3.org/2000/svg"><g id="_x31_4_Coordinate"><g><path d="m342.479 304.027v13.662c0 1.808-1.302 3.376-3.083 3.695l-15.789 2.897c-1.754 9.064-5.343 17.49-10.313 24.906l9.117 13.21c1.037 1.489.851 3.509-.425 4.785l-9.649 9.649c-1.302 1.302-3.323 1.488-4.811.452l-13.237-9.117c-7.389 4.97-15.815 8.532-24.879 10.286l-2.897 15.815c-.319 1.781-1.861 3.084-3.695 3.084h-13.636c-1.834 0-3.376-1.303-3.695-3.084l-2.897-15.815c-9.064-1.754-17.463-5.316-24.879-10.286l-13.237 9.117c-1.488 1.01-3.509.85-4.811-.452l-9.649-9.649c-1.276-1.276-1.462-3.296-.425-4.785l9.117-13.21c-4.97-7.416-8.559-15.842-10.313-24.906l-15.789-2.897c-1.781-.319-3.083-1.887-3.083-3.695v-13.662c0-1.807 1.303-3.376 3.083-3.694l15.789-2.897c1.754-9.064 5.343-17.49 10.313-24.906l-9.117-13.211c-1.037-1.488-.851-3.508.425-4.784l9.649-9.649c1.302-1.302 3.323-1.489 4.811-.452l13.237 9.117c7.416-4.97 15.815-8.532 24.879-10.287l2.897-15.815c.319-1.781 1.861-3.083 3.695-3.083h13.636c1.834 0 3.376 1.302 3.695 3.083l2.897 15.815c9.064 1.754 17.49 5.316 24.879 10.287l13.237-9.117c1.488-1.037 3.509-.851 4.811.452l9.649 9.649c1.276 1.276 1.462 3.296.425 4.784l-9.117 13.211c4.97 7.416 8.559 15.842 10.313 24.906l15.789 2.897c1.781.318 3.083 1.887 3.083 3.694z" fill="#3eb655"/><path d="m292.613 310.858c0 20.225-16.395 36.605-36.62 36.605-20.21 0-36.605-16.379-36.605-36.605 0-20.21 16.395-36.605 36.605-36.605 20.226 0 36.62 16.395 36.62 36.605z" fill="#fff"/><path d="m287.186 291.807c-5.517-3.382-11.97-5.309-18.944-5.309-20.194 0-36.588 16.395-36.588 36.64 0 6.922 1.926 13.376 5.309 18.892-10.565-6.349-17.591-17.904-17.591-31.175 0-20.194 16.394-36.587 36.64-36.587 13.218 0 24.824 7.025 31.174 17.539z" opacity=".1"/><circle cx="256.011" cy="51.267" fill="#ffcbc0" r="39.88"/><path d="m327.052 178.429h-142.104c-9.109 0-16.338-8.227-14.575-17.16 7.993-40.022 43.313-70.112 85.627-70.112s77.634 30.09 85.627 70.112c1.763 8.933-5.407 17.16-14.575 17.16z" fill="#d81a60"/><circle cx="102.264" cy="373.451" fill="#ffcbc0" r="39.88"/><path d="m173.305 500.612h-142.104c-9.109 0-16.338-8.227-14.575-17.16 7.993-40.022 43.313-70.112 85.627-70.112s77.634 30.09 85.627 70.112c1.763 8.933-5.407 17.16-14.575 17.16z" fill="#41b3e7"/><circle cx="409.758" cy="373.451" fill="#ffcbc0" r="39.88"/><path d="m480.799 500.612h-142.104c-9.109 0-16.338-8.227-14.575-17.16 7.993-40.022 43.313-70.112 85.627-70.112s77.634 30.09 85.627 70.112c1.763 8.933-5.407 17.16-14.575 17.16z" fill="#faa629"/><g fill="#25294f"><path d="m255.995 269.049c-23.054 0-41.809 18.755-41.809 41.809s18.755 41.809 41.809 41.809c23.059 0 41.824-18.755 41.824-41.809s-18.765-41.809-41.824-41.809zm0 73.209c-17.316 0-31.4-14.086-31.4-31.4s14.084-31.4 31.4-31.4c17.321 0 31.415 14.086 31.415 31.4s-14.094 31.4-31.415 31.4z"/><path d="m319.013 482.443c-2.374 12.049 7.187 23.375 19.68 23.375h142.107c12.523 0 22.068-11.293 19.675-23.385-6.962-34.873-33.328-61.991-66.468-71.037 12.508-8.022 20.837-22.016 20.837-37.946 0-24.859-20.229-45.085-45.087-45.085-17.607 0-32.848 10.17-40.265 24.924l-43.348-18.437c.681-1.999 1.3-4.019 1.805-6.075l12.366-2.269c4.269-.767 7.37-4.475 7.37-8.818v-13.662c0-4.348-3.1-8.058-7.349-8.813l-12.386-2.274c-1.748-7.131-4.564-13.931-8.412-20.295l7.146-10.353c2.48-3.555 2.053-8.366-1.017-11.438l-9.652-9.652c-3.09-3.083-7.919-3.512-11.441-1.055l-10.394 7.159c-6.323-3.822-13.113-6.63-20.269-8.384l-2.272-12.394c-.767-4.269-4.478-7.367-8.818-7.367h-1.616v-35.527h65.849c12.523 0 22.068-11.293 19.675-23.385-6.962-34.873-33.328-61.991-66.468-71.037 12.508-8.022 20.837-22.016 20.837-37.946 0-24.859-20.229-45.085-45.087-45.085-24.859 0-45.082 20.226-45.082 45.085 0 15.926 8.323 29.918 20.826 37.941-33.148 9.043-59.52 36.165-66.488 71.051-2.374 12.049 7.187 23.375 19.68 23.375h65.849v35.527h-1.611c-4.34 0-8.051 3.098-8.813 7.349l-2.277 12.414c-7.131 1.748-13.926 4.556-20.269 8.384l-10.373-7.141c-3.568-2.493-8.391-2.048-11.466 1.039l-9.652 9.649c-3.065 3.07-3.492 7.88-1.027 11.418l7.161 10.371c-3.847 6.363-6.663 13.164-8.412 20.295l-12.366 2.269c-4.274.762-7.375 4.473-7.375 8.818v13.662c0 4.34 3.1 8.048 7.349 8.813l12.391 2.274c.503 2.049 1.119 4.062 1.798 6.055l-43.334 18.431c-7.424-14.739-22.66-24.897-40.257-24.897-24.859 0-45.082 20.226-45.082 45.085 0 15.926 8.323 29.918 20.826 37.941-33.148 9.043-59.52 36.165-66.488 71.051-2.374 12.049 7.187 23.375 19.68 23.375h142.108c12.523 0 22.068-11.293 19.675-23.385-6.962-34.873-33.327-61.991-66.468-71.037 12.508-8.022 20.837-22.016 20.837-37.946 0-3.582-.464-7.051-1.258-10.393l43.803-18.63c.801 1.57 1.654 3.12 2.573 4.642l-7.146 10.351c-2.48 3.56-2.053 8.371 1.017 11.441l9.642 9.647c3.044 3.05 7.847 3.509 11.446 1.062l10.399-7.164c6.348 3.827 13.138 6.638 20.269 8.386l2.272 12.394c.767 4.272 4.478 7.37 8.818 7.37h13.636c4.341 0 8.051-3.098 8.813-7.352l2.277-12.409c7.151-1.751 13.947-4.562 20.269-8.386l10.373 7.146c3.543 2.47 8.371 2.038 11.466-1.044l9.647-9.649c3.07-3.07 3.497-7.88 1.032-11.418l-7.161-10.373c.915-1.516 1.764-3.06 2.562-4.623l43.826 18.64c-.789 3.334-1.25 6.792-1.25 10.364 0 15.926 8.323 29.918 20.826 37.941-33.149 9.043-59.522 36.165-66.489 71.052zm-97.676-431.175c0-19.121 15.553-34.676 34.673-34.676 19.121 0 34.678 15.555 34.678 34.676s-15.558 34.675-34.678 34.675c-19.121 0-34.673-15.555-34.673-34.675zm-45.86 111.02c7.629-38.2 41.489-65.926 80.523-65.926s72.894 27.725 80.518 65.915c1.138 5.725-3.581 10.948-9.464 10.948h-142.108c-5.873.001-10.585-5.264-9.469-10.937zm7.293 322.172c1.138 5.725-3.581 10.948-9.464 10.948h-142.107c-5.873 0-10.585-5.265-9.469-10.938 7.629-38.2 41.489-65.926 80.523-65.926s72.894 27.726 80.517 65.916zm-80.507-76.334c-19.121 0-34.673-15.555-34.673-34.676s15.553-34.676 34.673-34.676 34.678 15.555 34.678 34.676c0 19.12-15.558 34.676-34.678 34.676zm207.23-35.809-12.249-8.44c-1.759-1.207-4.081-1.227-5.86-.031-6.994 4.706-14.719 7.901-22.963 9.494-2.104.409-3.741 2.064-4.127 4.173l-2.684 14.633h-11.217l-2.684-14.633c-.386-2.109-2.023-3.764-4.127-4.173-8.208-1.588-15.939-4.783-22.973-9.499-1.769-1.194-4.091-1.174-5.85.036l-12.249 8.437-7.949-7.952 8.432-12.221c1.215-1.759 1.23-4.079.041-5.853-4.737-7.065-7.944-14.803-9.53-22.996-.407-2.104-2.058-3.743-4.168-4.13l-14.612-2.681v-11.248l14.612-2.681c2.109-.386 3.761-2.025 4.168-4.13 1.586-8.196 4.793-15.934 9.53-22.999 1.189-1.774 1.174-4.097-.041-5.853l-8.437-12.218 7.954-7.952 12.249 8.434c1.764 1.212 4.086 1.22 5.85.036 7.034-4.714 14.76-7.908 22.973-9.497 2.104-.409 3.741-2.064 4.127-4.173l2.684-14.633h11.217l2.684 14.633c.386 2.109 2.023 3.764 4.127 4.173 8.244 1.593 15.969 4.788 22.963 9.492 1.774 1.192 4.097 1.177 5.86-.03l12.249-8.437 7.954 7.954-8.437 12.218c-1.215 1.756-1.23 4.079-.041 5.853 4.737 7.065 7.944 14.803 9.53 22.999.407 2.104 2.058 3.743 4.168 4.13l14.607 2.681v11.248l-14.607 2.681c-2.109.386-3.761 2.025-4.168 4.13-.808 4.177-2.049 8.231-3.688 12.142-.035.074-.102.119-.134.196-.021.05-.012.103-.032.154-1.55 3.634-3.427 7.15-5.676 10.504-1.189 1.774-1.174 4.094.041 5.853l8.432 12.221zm65.591 1.133c0-19.121 15.553-34.676 34.673-34.676 19.121 0 34.678 15.555 34.678 34.676s-15.558 34.676-34.678 34.676c-19.121 0-34.673-15.556-34.673-34.676zm34.663 45.095c39.034 0 72.894 27.725 80.518 65.915 1.138 5.725-3.582 10.948-9.464 10.948h-142.108c-5.873 0-10.585-5.265-9.469-10.938 7.629-38.2 41.489-65.925 80.523-65.925z"/></g></g></g></svg>