<svg height="512" viewBox="0 0 512 512" width="512" xmlns="http://www.w3.org/2000/svg"><g id="Layer_2" data-name="Layer 2"><g id="folder"><path d="m244.69 402.65a130.79 130.79 0 0 0 71.2 87c-29.62 7.89-63.74 12.39-100 12.39-113.74-.04-205.89-44.1-205.89-98.44v-98.4c0 54.34 92.15 98.4 205.84 98.4 9.79 0 19.42-.33 28.84-1z" fill="#607781"/><path d="m215.84 206.8c113.68 0 205.83-44.06 205.83-98.4v142.6a130.65 130.65 0 0 0 -161.28 51.94 423.29 423.29 0 0 1 -44.54 2.31c-113.7-.05-205.85-44.11-205.85-98.45v-98.4a48.41 48.41 0 0 0 1.44 11.69c12.09 48.83 98.99 86.71 204.4 86.71z" fill="#607781"/><path d="m244.69 402.65c-9.42.62-19.05 1-28.84 1-113.7-.05-205.85-44.11-205.85-98.45v-98.4c0 54.34 92.15 98.4 205.84 98.4a423.29 423.29 0 0 0 44.54-2.31 130.93 130.93 0 0 0 -15.69 99.76z" fill="#80949c"/><path d="m50.16 220.82a9.85 9.85 0 0 1 -1.95-.2 10.1 10.1 0 0 1 -1.87-.57 10.24 10.24 0 0 1 -1.73-.92 9.57 9.57 0 0 1 -1.52-1.24 10 10 0 0 1 1.52-15.39 10.24 10.24 0 0 1 1.73-.92 10.1 10.1 0 0 1 1.87-.57 9.9 9.9 0 0 1 3.91 0 10.58 10.58 0 0 1 1.87.57 10 10 0 0 1 6 7.28 10 10 0 0 1 -2.74 9 9.57 9.57 0 0 1 -1.52 1.24 10.15 10.15 0 0 1 -1.72.92 10.58 10.58 0 0 1 -1.87.57 10 10 0 0 1 -1.98.23z"/><path d="m90.33 240.9a10 10 0 0 1 -2-.2 10.34 10.34 0 0 1 -1.87-.57 10.15 10.15 0 0 1 -1.72-.92 9.57 9.57 0 0 1 -1.48-1.21 10 10 0 0 1 -2.74-9 10.58 10.58 0 0 1 .57-1.87 10 10 0 0 1 5.41-5.41 10.34 10.34 0 0 1 1.87-.57 9.9 9.9 0 0 1 3.91 0 10.1 10.1 0 0 1 1.87.57 10.24 10.24 0 0 1 1.73.92 10.75 10.75 0 0 1 1.52 1.25 9.57 9.57 0 0 1 1.24 1.52 10.15 10.15 0 0 1 .92 1.72 10.58 10.58 0 0 1 .57 1.87 9.95 9.95 0 0 1 -4.25 10.27 10.24 10.24 0 0 1 -1.73.92 10.1 10.1 0 0 1 -1.87.57 9.85 9.85 0 0 1 -1.95.14z"/><path d="m50.16 321.22a10 10 0 0 1 -7.07-2.93 9.57 9.57 0 0 1 -1.24-1.52 10 10 0 0 1 -1.49-3.59 9.66 9.66 0 0 1 0-3.91 10.1 10.1 0 0 1 .57-1.87 10.63 10.63 0 0 1 .92-1.73 10 10 0 0 1 1.24-1.52 9.57 9.57 0 0 1 1.52-1.24 9.87 9.87 0 0 1 1.73-.92 10.1 10.1 0 0 1 1.87-.57 9.9 9.9 0 0 1 3.91 0 10.58 10.58 0 0 1 1.88.58 10.15 10.15 0 0 1 1.72.92 9.57 9.57 0 0 1 1.52 1.24 10.11 10.11 0 0 1 1.25 1.52 10.63 10.63 0 0 1 .92 1.73 10.1 10.1 0 0 1 .57 1.87 10.15 10.15 0 0 1 0 3.91 10 10 0 0 1 -1.49 3.59 10.14 10.14 0 0 1 -2.77 2.77 10.15 10.15 0 0 1 -1.72.92 10.58 10.58 0 0 1 -1.87.57 10 10 0 0 1 -1.97.18z"/><path d="m90.33 341.31a10 10 0 0 1 -2-.2 10.58 10.58 0 0 1 -1.87-.57 10.15 10.15 0 0 1 -1.72-.92 9.57 9.57 0 0 1 -1.52-1.24 10.11 10.11 0 0 1 -1.22-1.52 10.63 10.63 0 0 1 -.92-1.73 10.1 10.1 0 0 1 -.57-1.87 10.15 10.15 0 0 1 0-3.91 10.1 10.1 0 0 1 .57-1.87 10.63 10.63 0 0 1 .92-1.73 10.11 10.11 0 0 1 1.25-1.52 9.57 9.57 0 0 1 1.53-1.23 10 10 0 0 1 3.59-1.49 9.9 9.9 0 0 1 3.91 0 10.1 10.1 0 0 1 1.87.57 10.24 10.24 0 0 1 1.73.92 9.57 9.57 0 0 1 1.52 1.24 10 10 0 0 1 1.24 1.52 10.63 10.63 0 0 1 .92 1.73 10.1 10.1 0 0 1 .57 1.87 9.66 9.66 0 0 1 0 3.91 10.1 10.1 0 0 1 -.57 1.87 10.63 10.63 0 0 1 -.92 1.73 9.72 9.72 0 0 1 -2.76 2.76 10.24 10.24 0 0 1 -1.73.92 10.1 10.1 0 0 1 -1.87.57 9.85 9.85 0 0 1 -1.95.19z"/><path d="m50.16 421.63a9.84 9.84 0 0 1 -1.95-.19 10.1 10.1 0 0 1 -1.87-.57 9.87 9.87 0 0 1 -1.73-.92 10.21 10.21 0 0 1 -1.52-1.25 9.57 9.57 0 0 1 -1.24-1.52 10.15 10.15 0 0 1 -.92-1.72 10.58 10.58 0 0 1 -.57-1.87 10 10 0 0 1 -.2-2 9.85 9.85 0 0 1 .2-1.95 10.1 10.1 0 0 1 .57-1.87 9.87 9.87 0 0 1 .92-1.73 9.72 9.72 0 0 1 2.76-2.76 9.87 9.87 0 0 1 1.73-.92 10.1 10.1 0 0 1 1.87-.57 9.9 9.9 0 0 1 3.91 0 10.58 10.58 0 0 1 1.87.57 10.15 10.15 0 0 1 1.72.92 9.57 9.57 0 0 1 1.52 1.24 10.21 10.21 0 0 1 1.25 1.52 9.87 9.87 0 0 1 .92 1.73 10.1 10.1 0 0 1 .57 1.87 9.84 9.84 0 0 1 .19 1.95 10 10 0 0 1 -.19 2 10.58 10.58 0 0 1 -.57 1.87 10 10 0 0 1 -5.4 5.41 10.58 10.58 0 0 1 -1.87.57 10 10 0 0 1 -1.97.19z"/><path d="m90.33 441.71a9.94 9.94 0 0 1 -2-.19 10 10 0 0 1 -3.55-1.52 10 10 0 0 1 -3.69-4.49 10.1 10.1 0 0 1 -.57-1.87 9.94 9.94 0 0 1 -.19-2 9.84 9.84 0 0 1 .19-1.95 10.1 10.1 0 0 1 .57-1.87 9.87 9.87 0 0 1 .92-1.73 10.15 10.15 0 0 1 1.24-1.52 10 10 0 0 1 3.25-2.16 10.1 10.1 0 0 1 1.87-.57 9.9 9.9 0 0 1 3.91 0 10.1 10.1 0 0 1 1.87.57 9.87 9.87 0 0 1 1.73.92 9.57 9.57 0 0 1 1.52 1.24 10 10 0 0 1 1.24 1.52 9.87 9.87 0 0 1 .92 1.73 10.1 10.1 0 0 1 .57 1.87 9.85 9.85 0 0 1 .2 1.95 10 10 0 0 1 -.2 2 10 10 0 0 1 -1.49 3.59 9.57 9.57 0 0 1 -1.24 1.52 10 10 0 0 1 -7.07 2.96z"/><path d="m421.67 108.4c0 54.34-92.15 98.4-205.83 98.4-105.41 0-192.31-37.88-204.4-86.71a48.41 48.41 0 0 1 -1.44-11.69c0-54.34 92.16-98.4 205.84-98.4s205.83 44.06 205.83 98.4z" fill="#80949c"/><path d="m215.84 216.8c-52 0-102.15-9.18-141.13-25.85-40.41-17.28-66.33-41.6-73-68.46a58.57 58.57 0 0 1 -1.71-14.09c0-30.35 23.43-58.26 66-78.6 40.18-19.22 93.4-29.8 149.84-29.8s109.66 10.58 149.86 29.8c42.54 20.34 66 48.25 66 78.6s-23.43 58.26-66 78.6c-40.2 19.22-93.42 29.8-149.86 29.8zm0-196.8c-53.52 0-103.68 9.89-141.24 27.84-34.7 16.59-54.6 38.66-54.6 60.56a38.6 38.6 0 0 0 1.15 9.28c5.1 20.63 26.92 40.12 61.43 54.88 36.54 15.63 83.87 24.24 133.26 24.24 53.52 0 103.67-9.89 141.23-27.84 34.7-16.59 54.6-38.66 54.6-60.56s-19.9-44-54.6-60.56c-37.56-17.95-87.71-27.84-141.23-27.84z"/><path d="m215.84 315.2c-56.45 0-109.67-10.58-149.87-29.8-42.54-20.34-65.97-48.25-65.97-78.6a10 10 0 0 1 20 0c0 21.9 19.9 44 54.6 60.56 37.56 17.95 87.72 27.84 141.24 27.84a416.27 416.27 0 0 0 43.49-2.2 10 10 0 1 1 2.1 19.88 434.29 434.29 0 0 1 -45.59 2.32z"/><path d="m215.84 413.6c-56.45 0-109.67-10.6-149.84-29.8-42.57-20.34-66-48.25-66-78.6a10 10 0 0 1 20 0c0 21.9 19.9 44 54.6 60.55 37.56 18 87.72 27.85 141.24 27.85 9.34 0 18.82-.31 28.18-.93a10 10 0 1 1 1.32 20c-9.8.6-19.73.93-29.5.93z"/><path d="m215.84 512c-56.45 0-109.67-10.58-149.84-29.8-42.57-20.34-66-48.2-66-78.6v-295.2a10 10 0 0 1 20 0v295.2c0 21.9 19.9 44 54.6 60.56 37.56 17.95 87.72 27.84 141.24 27.84 34.17 0 67.87-4.17 97.48-12.05a10 10 0 1 1 5.14 19.32c-31.25 8.33-66.74 12.73-102.62 12.73z"/><path d="m421.67 261a10 10 0 0 1 -10-10v-142.6a10 10 0 0 1 20 0v142.6a10 10 0 0 1 -10 10z"/><path d="m439.84 315.53v111.88h-136.74v-87.02h62.15l12.44-24.86z" fill="#ffcb2d"/><path d="m371.47 240.94a130.53 130.53 0 1 1 -130.53 130.53 130.53 130.53 0 0 1 130.53-130.53zm68.37 186.47v-111.88h-62.15l-12.44 24.86h-62.15v87z" fill="#c9cbcc"/><path d="m371.47 512c-77.47 0-140.53-63-140.53-140.53s63-140.53 140.53-140.53 140.53 63.06 140.53 140.53-63 140.53-140.53 140.53zm0-261.06a120.53 120.53 0 1 0 120.53 120.53 120.67 120.67 0 0 0 -120.53-120.53z"/><path d="m439.84 437.41h-136.74a10 10 0 0 1 -10-10v-87a10 10 0 0 1 10-10h56l9.68-19.34a10 10 0 0 1 8.94-5.52h62.15a10 10 0 0 1 10 10v111.86a10 10 0 0 1 -10.03 10zm-126.74-20h116.74v-91.88h-46l-9.68 19.34a10 10 0 0 1 -8.94 5.52h-52.12z"/></g></g></svg>