<svg id="Layer_1" enable-background="new 0 0 36 36" viewBox="0 0 36 36" xmlns="http://www.w3.org/2000/svg"><g><path d="m12.9047852 25.8837891h10.1904297c1.9190731 0 3.2606049-1.906786 2.6201172-3.7246094-.7880249-2.2312012-2.4971313-3.9403687-4.6001587-4.8116455.7254639-.7692261 1.1782722-1.7987671 1.1782722-2.9373779 0-2.3671875-1.9257698-4.2929688-4.2939339-4.2929688-2.3671875 0-4.2929688 1.9257813-4.2929688 4.2929688 0 1.1386108.4528198 2.1681519 1.1781616 2.9373169-2.1027832.8712769-3.8120117 2.5804443-4.6000366 4.8117065-.6400451 1.8165684.6997176 3.7246094 2.6201173 3.7246094zm2.8017578-11.4736328c0-1.2646484 1.0283203-2.2929688 2.2929688-2.2929688s2.2939339 1.0283203 2.2939339 2.2929688-1.0292854 2.2939453-2.2939339 2.2939453-2.2929688-1.0292969-2.2929688-2.2939453zm-3.5351563 8.415039c.8701172-2.4648438 3.2128906-4.1210938 5.828125-4.1210938 2.6162109 0 4.9589844 1.65625 5.8291016 4.1210938.1830711.5130005-.1873932 1.0585938-.7333984 1.0585938h-10.1904297c-.5461455 0-.9164219-.5457268-.7333985-1.0585938z"/><path d="m4.0229492 21.6943359 1.7646484.3349609c.1962891.5957032.4394532 1.1835938.7275391 1.7578126l-1.0078125 1.4873047c-.6708984.9892578-.5458984 2.3212891.2978516 3.1679688l1.7431641 1.7480469c.8427734.8457031 2.1728516.9755859 3.1660156.3085938l1.5019531-1.0107422c.5546875.28125 1.1386719.5234375 1.7460938.7236328l.3408203 1.7636719c.227539 1.1728514 1.2597656 2.0244139 2.4541015 2.0244139h2.484375c1.1962891 0 2.2285156-.8515625 2.4541016-2.0253906l.3408203-1.7617188c.6074219-.2001953 1.1914063-.4423828 1.7451172-.7236328l1.4824219 1.0039063c.9892578.6728516 2.3212891.5458984 3.1679688-.2988281l1.7548828-1.75c.8496094-.8457031.9775391-2.1806641.3046875-3.1728516l-1.0068359-1.484375c.2871094-.5751953.5302734-1.1630859.7265625-1.7578125l1.7646484-.3349609c1.1787109-.2246094 2.0341797-1.2568359 2.0341797-2.4560547v-2.4697266c0-1.1962891-.8525391-2.2285156-2.0273438-2.4541016l-1.7714844-.3417969c-.1953125-.5898438-.4384766-1.1748047-.7265625-1.7490234l1.0078125-1.4863281c.6708984-.9902344.5439453-2.3232422-.3017578-3.1708984l-1.7558594-1.7548828c-.8496094-.8496094-2.1835938-.9707031-3.1757813-.2978516l-1.4785156 1.0068359c-.5537109-.28125-1.1367188-.5234375-1.7431641-.7226563l-.3408203-1.7695313c-.2265625-1.1757811-1.258789-2.0283202-2.4550781-2.0283202h-2.4833984c-1.1962891 0-2.2285156.8525391-2.4541016 2.0273438l-.3417969 1.7705078c-.6074219.2001953-1.1914063.4423828-1.7451172.7236328l-1.4990234-1.0136719c-.9892578-.6708984-2.3261719-.5439453-3.1728515.3076172l-1.7441407 1.7539062c-.8408203.8476563-.9648438 2.1787109-.2958984 3.1640625l1.0097656 1.4892578c-.2890625.5751953-.5322266 1.1601563-.7275391 1.75l-1.7705078.3408203c-1.1748047.2265625-2.0273438 1.2587891-2.0273438 2.4550781v2.4697266c.0000001 1.1982422.8544923 2.2314454 2.0332032 2.4560547zm-.0332031-4.9257812c0-.2392578.1699219-.4453125.4052734-.4912109l2.3642578-.4560547c.3740235-.0712891.6748047-.3496094.7753907-.7177735.2265625-.8271484.5683594-1.6533203 1.0175781-2.4541016.1855469-.3300781.1679688-.7373047-.0439453-1.0498047l-1.3476563-1.9882812c-.133789-.1972656-.1083984-.4638672.0595703-.6328125l1.7431641-1.7529297c.1699219-.1699219.4375-.1953125.6347656-.0615234l2.0009766 1.3544922c.3173828.2148438.7304688.2294922 1.0615234.0371094.7431641-.4296875 1.5625-.7705078 2.4355469-1.0117188.3662109-.1015625.6435547-.4013672.7148438-.7744141l.4570313-2.3642578c.0449218-.234375.2509765-.4052734.4902343-.4052734h2.4833984c.2392578 0 .4453125.1708984.4902344.40625l.4550781 2.3632813c.0722656.3730469.3496094.6728516.7158203.7744141.8740234.2412109 1.6933594.5820313 2.4365234 1.0117188.3320313.1923828.7460938.1767578 1.0644531-.0390625l1.9824219-1.3505859c.1982422-.1357422.4648438-.1103516.6347656.0595703l1.7548828 1.7539063c.1699219.1699219.1953125.4375.0605469.6357422l-1.3447266 1.984375c-.2119141.3125-.2294922.71875-.0449219 1.0488281.4492188.8017578.7919922 1.6289063 1.0195313 2.4560547.1005859.3671875.4003906.6455078.7744141.7167969l2.3642578.4570313c.234375.0449219.4052734.2509766.4052734.4902344v2.4697266c0 .2392578-.171875.4462891-.4072266.4912109l-2.359375.4482422c-.375.0712891-.6767578.3496094-.7773438.7177734-.2304688.8388672-.5732422 1.6689453-1.0195313 2.4677734-.1845703.3300781-.1669922.7353516.0449219 1.0488281l1.3447266 1.9824219c.1337891.1982422.1083984.4638672-.0615234.6337891l-1.7548828 1.75c-.1699219.1689453-.4355469.1933594-.6328125.0595703l-1.9853516-1.3457031c-.3173828-.2148438-.7304688-.2275391-1.0615234-.0380859-.7441406.4296875-1.5644531.7705078-2.4384766 1.0126953-.3652344.1015625-.6425781.4013672-.7138672.7744141l-.4560547 2.3544922c-.0449217.2343746-.2509764.4042965-.4902342.4042965h-2.484375c-.2392578 0-.4453125-.1699219-.4912109-.4042969l-.4550781-2.3544922c-.0712891-.3730469-.3486328-.6728516-.7138672-.7744141-.8740234-.2421875-1.6933594-.5830078-2.4375-1.0126953-.1552734-.0888672-.3271484-.1337891-.5-.1337891-.1953125 0-.3896484.0566406-.5585938.1699219l-2.0039062 1.3496095c-.1982422.1328125-.4628906.1083984-.6328125-.0615234l-1.7431641-1.7480469c-.1679688-.1689453-.1933594-.4355469-.0585938-.6328125l1.3457031-1.9853516c.2119141-.3134766.2294922-.7197266.0449219-1.0498047-.4472656-.7978516-.7890625-1.6269531-1.0185547-2.4658203-.1005859-.3681641-.4033203-.6474609-.7783203-.71875l-2.359375-.4482422c-.2363281-.0449219-.4072266-.2519531-.4072266-.4912109v-2.4697266z"/></g></svg>