<?xml version="1.0"?>
<svg xmlns="http://www.w3.org/2000/svg" id="Layer_1" data-name="Layer 1" viewBox="0 0 512 512"><defs><style>.cls-1{fill:#ffe177;}.cls-1,.cls-3{fill-rule:evenodd;}.cls-2{fill:#f8f7f8;}.cls-3{fill:#242222;}</style></defs><path class="cls-1" d="M286.67,119.38a139.16,139.16,0,0,1,44.24,18.34l16.78-16.78a7.9,7.9,0,0,1,10.38-.73,171.53,171.53,0,0,1,33.72,33.72,7.9,7.9,0,0,1-.73,10.38l-16.78,16.78a139.18,139.18,0,0,1,18.35,44.24h23.73a7.9,7.9,0,0,1,7.85,6.83,172,172,0,0,1,0,47.68,7.9,7.9,0,0,1-7.85,6.83H392.63a139.41,139.41,0,0,1-18.35,44.24l16.78,16.78a7.9,7.9,0,0,1,.73,10.38,171.26,171.26,0,0,1-33.72,33.72,7.9,7.9,0,0,1-10.38-.73l-16.78-16.78a139,139,0,0,1-44.24,18.35v23.73a7.89,7.89,0,0,1-6.83,7.85,171,171,0,0,1-47.68,0,7.89,7.89,0,0,1-6.83-7.85V392.63a139.41,139.41,0,0,1-44.24-18.35l-16.78,16.78a7.9,7.9,0,0,1-10.38.73,171.26,171.26,0,0,1-33.72-33.72,7.9,7.9,0,0,1,.73-10.38l16.78-16.77a139.33,139.33,0,0,1-18.35-44.25H95.64a7.9,7.9,0,0,1-7.85-6.83,172,172,0,0,1,0-47.68,7.9,7.9,0,0,1,7.85-6.83h23.73a139,139,0,0,1,18.35-44.24l-16.78-16.78a7.9,7.9,0,0,1-.73-10.38,171.53,171.53,0,0,1,33.72-33.72,7.9,7.9,0,0,1,10.38.73l16.78,16.78a139.16,139.16,0,0,1,44.24-18.34V95.64a7.9,7.9,0,0,1,6.83-7.85,172,172,0,0,1,47.68,0,7.9,7.9,0,0,1,6.83,7.85Z"/><circle class="cls-2" cx="256" cy="256" r="86.51"/><path class="cls-3" d="M399.43,448.58a8,8,0,0,1-2,11.14,248.13,248.13,0,0,1-290.3-5.34l2.69,7.46a8,8,0,0,1-15,5.43l-12.9-35.78a8,8,0,0,1,8.93-10.59l37.44,6.72a8,8,0,1,1-2.83,15.74l-8.28-1.49a232.12,232.12,0,0,0,271.18,4.7,8,8,0,0,1,11.13,2ZM493.1,328.66a250.29,250.29,0,0,1-11.21,29.73,8,8,0,0,1-14.58-6.59A233.36,233.36,0,0,0,477.8,324a8,8,0,0,1,15.3,4.68ZM462,394.19a247.52,247.52,0,0,1-23.45,29.73,8,8,0,1,1-11.76-10.84,231,231,0,0,0,21.92-27.81A8,8,0,0,1,462,394.19Zm41.95-131a247.42,247.42,0,0,1-2.68,29.74,8,8,0,0,1-7.9,6.8,8.31,8.31,0,0,1-1.21-.09,8,8,0,0,1-6.71-9.12A231.2,231.2,0,0,0,488,262.68a8,8,0,0,1,16,.46ZM481.17,200a8,8,0,0,1,15.53-3.88,249,249,0,0,1,5.69,31.2,8,8,0,0,1-7,8.87,7.39,7.39,0,0,1-.94,0,8,8,0,0,1-7.93-7.06A230,230,0,0,0,481.17,200ZM44.69,160.21A233.64,233.64,0,0,0,34.2,188a8,8,0,0,1-7.65,5.67,7.67,7.67,0,0,1-2.34-.37,8,8,0,0,1-5.31-10,251.22,251.22,0,0,1,11.21-29.72,8,8,0,1,1,14.58,6.59ZM8.06,248.86a246.89,246.89,0,0,1,2.68-29.73,8,8,0,0,1,15.82,2.39,231.9,231.9,0,0,0-2.51,27.81,8,8,0,0,1-8,7.76h-.24a8,8,0,0,1-7.76-8.23ZM30.83,312A8,8,0,0,1,25,321.67a7.65,7.65,0,0,1-1.94.25,8,8,0,0,1-7.76-6.07,248.33,248.33,0,0,1-5.69-31.2,8,8,0,0,1,15.9-1.85A229.52,229.52,0,0,0,30.83,312ZM112.58,63.42a8,8,0,0,1,2-11.13,248,248,0,0,1,290.3,5.34l-2.69-7.46a8,8,0,0,1,15-5.44l12.91,35.79a8,8,0,0,1-7.53,10.7,7.46,7.46,0,0,1-1.41-.12l-37.43-6.71a8,8,0,0,1,2.82-15.75l8.29,1.49a232.12,232.12,0,0,0-271.18-4.7,8,8,0,0,1-11.13-2ZM85.23,98.93a230,230,0,0,0-21.93,27.8,8,8,0,0,1-6.65,3.55,7.89,7.89,0,0,1-4.45-1.37A8,8,0,0,1,50,117.81,248.31,248.31,0,0,1,73.46,88.08,8,8,0,1,1,85.23,98.93ZM256,334.51A78.51,78.51,0,1,1,334.51,256,78.6,78.6,0,0,1,256,334.51Zm0-173A94.52,94.52,0,1,0,350.51,256,94.63,94.63,0,0,0,256,161.48ZM384.82,284.92a8,8,0,0,1,7.81-6.26h23.66a163.87,163.87,0,0,0,0-45.33H392.63a8,8,0,0,1-7.8-6.25,130.73,130.73,0,0,0-17.3-41.7,8,8,0,0,1,1.1-9.95l16.73-16.74a163.28,163.28,0,0,0-32.05-32l-16.74,16.74a8,8,0,0,1-9.94,1.1,130.92,130.92,0,0,0-41.7-17.3,8,8,0,0,1-6.26-7.8V95.71a163.87,163.87,0,0,0-45.33,0v23.67a8,8,0,0,1-6.26,7.8,130.73,130.73,0,0,0-41.7,17.3,8,8,0,0,1-9.95-1.1L158.7,126.64a163.33,163.33,0,0,0-32.06,32.05l16.73,16.74a8,8,0,0,1,1.1,9.95,130.93,130.93,0,0,0-17.29,41.7,8,8,0,0,1-7.81,6.25H95.71a163.35,163.35,0,0,0,0,45.33h23.66a8,8,0,0,1,7.81,6.26,130.89,130.89,0,0,0,17.29,41.71,8,8,0,0,1-1.1,9.94l-16.73,16.74a163,163,0,0,0,32.05,32.05l16.74-16.73a8,8,0,0,1,9.95-1.11,130.73,130.73,0,0,0,41.7,17.3,8,8,0,0,1,6.26,7.81V416.3a164.25,164.25,0,0,0,45.33,0V392.63a8,8,0,0,1,6.25-7.8,130.94,130.94,0,0,0,41.71-17.31,8,8,0,0,1,9.95,1.11l16.72,16.73a162.79,162.79,0,0,0,32.06-32.05l-16.73-16.74a8,8,0,0,1-1.1-9.94,130.89,130.89,0,0,0,17.29-41.71Zm31.54,9.75A15.8,15.8,0,0,0,432.13,281a179.75,179.75,0,0,0,0-49.9,15.8,15.8,0,0,0-15.77-13.71H398.9a146.81,146.81,0,0,0-14.53-35L396.72,170a15.81,15.81,0,0,0,1.46-20.85,179.1,179.1,0,0,0-35.3-35.29A15.78,15.78,0,0,0,342,115.29l-12.35,12.33a147.26,147.26,0,0,0-35-14.51V95.65A15.8,15.8,0,0,0,281,79.87a179.89,179.89,0,0,0-49.92,0,15.79,15.79,0,0,0-13.7,15.78v17.46a147.09,147.09,0,0,0-35,14.51L170,115.29a15.8,15.8,0,0,0-20.85-1.47,179.64,179.64,0,0,0-35.3,35.29A15.82,15.82,0,0,0,115.28,170l12.35,12.35a146.37,146.37,0,0,0-14.52,35H95.65a15.8,15.8,0,0,0-15.78,13.71,179.75,179.75,0,0,0,0,49.9,15.82,15.82,0,0,0,15.78,13.72h17.46a146.3,146.3,0,0,0,14.52,35L115.28,342a15.81,15.81,0,0,0-1.46,20.84,178.88,178.88,0,0,0,35.3,35.3A15.83,15.83,0,0,0,170,396.72l12.35-12.35a146.27,146.27,0,0,0,35,14.51v17.48A15.79,15.79,0,0,0,231,432.13a178.88,178.88,0,0,0,49.92,0,15.8,15.8,0,0,0,13.71-15.77V398.9a147.53,147.53,0,0,0,35-14.52L342,396.72a15.82,15.82,0,0,0,20.84,1.46,178.61,178.61,0,0,0,35.3-35.3A15.8,15.8,0,0,0,396.72,342l-12.35-12.35a146.3,146.3,0,0,0,14.52-35Z"/></svg>
