<svg id="Layer_1" enable-background="new 0 0 512 512" viewBox="0 0 512 512" xmlns="http://www.w3.org/2000/svg"><g clip-rule="evenodd" fill-rule="evenodd"><g><g><path d="m491.444 96.852c-13.659 0-20.512 16.548-10.854 26.205 1.779 1.779 1.779 4.665 0 6.444l-9.809 9.809c-1.779 1.779-4.665 1.779-6.444 0-9.658-9.658-26.205-2.804-26.205 10.854 0 2.517-2.04 4.556-4.556 4.556h-13.872c-2.516 0-4.556-2.039-4.556-4.556 0-13.676-16.536-20.524-26.206-10.854-1.779 1.779-4.665 1.779-6.443 0l-9.809-9.809c-1.779-1.779-1.779-4.665 0-6.444 9.658-9.658 2.804-26.205-10.855-26.205-2.517 0-4.556-2.04-4.556-4.556v-13.872c0-2.516 2.039-4.556 4.556-4.556 13.659 0 20.512-16.548 10.855-26.205-1.779-1.779-1.779-4.665 0-6.443l9.809-9.809c1.779-1.779 4.664-1.779 6.443 0 9.658 9.658 26.206 2.804 26.206-10.855 0-2.517 2.04-4.556 4.556-4.556h13.872c2.516 0 4.556 2.039 4.556 4.556 0 13.659 16.548 20.512 26.205 10.855 1.779-1.779 4.665-1.779 6.444 0l9.809 9.809c1.779 1.779 1.779 4.664 0 6.443-9.658 9.658-2.804 26.205 10.854 26.205 2.517 0 4.556 2.04 4.556 4.556v13.872c0 2.516-2.039 4.556-4.556 4.556z" fill="#fdcd56"/><circle cx="426.64" cy="85.361" fill="#f4f6f8" r="33.895"/></g><g><path d="m491.444 438.131c-13.659 0-20.512 16.547-10.854 26.205 1.779 1.779 1.779 4.665 0 6.444l-9.809 9.809c-1.779 1.779-4.665 1.779-6.444 0-9.658-9.658-26.205-2.804-26.205 10.854 0 2.517-2.04 4.556-4.556 4.556h-13.872c-2.516 0-4.556-2.039-4.556-4.556 0-13.676-16.536-20.524-26.206-10.854-1.779 1.779-4.665 1.779-6.443 0l-9.809-9.809c-1.779-1.779-1.779-4.665 0-6.444 9.658-9.658 2.804-26.205-10.855-26.205-2.517 0-4.556-2.04-4.556-4.556v-13.872c0-2.516 2.039-4.556 4.556-4.556 13.659 0 20.512-16.548 10.855-26.205-1.779-1.779-1.779-4.665 0-6.444l9.809-9.809c1.779-1.779 4.664-1.779 6.443 0 9.658 9.658 26.206 2.804 26.206-10.855 0-2.517 2.04-4.556 4.556-4.556h13.872c2.516 0 4.556 2.039 4.556 4.556 0 13.659 16.548 20.512 26.205 10.855 1.779-1.779 4.665-1.779 6.444 0l9.809 9.809c1.779 1.779 1.779 4.664 0 6.444-9.658 9.658-2.804 26.205 10.854 26.205 2.517 0 4.556 2.04 4.556 4.556v13.872c0 2.516-2.039 4.556-4.556 4.556z" fill="#fdcd56"/><circle cx="426.64" cy="426.64" fill="#f4f6f8" r="33.895"/></g><g><path d="m150.165 267.492c-13.659 0-20.512 16.547-10.854 26.205 1.779 1.779 1.779 4.665 0 6.444l-9.809 9.809c-1.779 1.779-4.665 1.779-6.444 0-9.658-9.658-26.205-2.804-26.205 10.854 0 2.517-2.04 4.556-4.556 4.556h-13.872c-2.516 0-4.556-2.039-4.556-4.556 0-13.676-16.536-20.524-26.205-10.854-1.779 1.779-4.665 1.779-6.444 0l-9.809-9.809c-1.779-1.779-1.779-4.665 0-6.444 9.658-9.658 2.804-26.205-10.855-26.205-2.517 0-4.556-2.04-4.556-4.556v-13.872c0-2.516 2.039-4.556 4.556-4.556 13.659 0 20.512-16.548 10.855-26.206-1.779-1.779-1.779-4.665 0-6.443l9.809-9.809c1.779-1.779 4.664-1.779 6.444 0 9.658 9.658 26.205 2.804 26.205-10.855 0-2.517 2.04-4.556 4.556-4.556h13.872c2.516 0 4.556 2.039 4.556 4.556 0 13.659 16.548 20.512 26.205 10.855 1.779-1.779 4.665-1.779 6.444 0l9.809 9.809c1.779 1.779 1.779 4.664 0 6.443-9.658 9.658-2.804 26.206 10.854 26.206 2.517 0 4.556 2.04 4.556 4.556v13.872c0 2.516-2.039 4.556-4.556 4.556z" fill="#fdcd56"/><ellipse cx="85.361" cy="256" fill="#f4f6f8" rx="33.895" ry="33.895" transform="matrix(.16 -.987 .987 .16 -181.007 299.252)"/></g><path d="m162.009 397.262c13.299 0 24.079 10.781 24.079 24.079 0 13.299-10.781 24.08-24.079 24.08-13.299 0-24.08-10.781-24.08-24.08 0-13.298 10.781-24.079 24.08-24.079zm0-282.524c13.299 0 24.079-10.781 24.079-24.08s-10.781-24.079-24.079-24.079c-13.299 0-24.08 10.781-24.08 24.079 0 13.3 10.781 24.08 24.08 24.08z" fill="#66d4f1"/><path d="m228.728 177.905h54.545c5.508 0 10 4.492 10 10v136.19c0 5.508-4.492 10-10 10h-54.545c-5.508 0-10-4.492-10-10v-136.19c0-5.508 4.492-10 10-10z" fill="#66d4f1"/><g><path d="m491.444 267.492c-13.659 0-20.512 16.547-10.854 26.205 1.779 1.779 1.779 4.665 0 6.444l-9.809 9.809c-1.779 1.779-4.665 1.779-6.444 0-9.658-9.658-26.205-2.804-26.205 10.854 0 2.517-2.04 4.556-4.556 4.556h-13.872c-2.516 0-4.556-2.039-4.556-4.556 0-13.676-16.536-20.524-26.206-10.854-1.779 1.779-4.665 1.779-6.443 0l-9.809-9.809c-1.779-1.779-1.779-4.665 0-6.444 9.658-9.658 2.804-26.205-10.855-26.205-2.517 0-4.556-2.04-4.556-4.556v-13.872c0-2.516 2.039-4.556 4.556-4.556 13.659 0 20.512-16.548 10.855-26.206-1.779-1.779-1.779-4.665 0-6.443l9.809-9.809c1.779-1.779 4.664-1.779 6.443 0 9.658 9.658 26.206 2.804 26.206-10.855 0-2.517 2.04-4.556 4.556-4.556h13.872c2.516 0 4.556 2.039 4.556 4.556 0 13.659 16.548 20.512 26.205 10.855 1.779-1.779 4.665-1.779 6.444 0l9.809 9.809c1.779 1.779 1.779 4.664 0 6.443-9.658 9.658-2.804 26.206 10.854 26.206 2.517 0 4.556 2.04 4.556 4.556v13.872c0 2.516-2.039 4.556-4.556 4.556z" fill="#636c77"/><circle cx="426.64" cy="256" fill="#f4f6f8" r="33.895"/></g></g><path d="m85.358 282.902c-14.83 0-26.897-12.059-26.897-26.893 0-14.83 12.068-26.898 26.897-26.898 14.83 0 26.902 12.068 26.902 26.898 0 14.835-12.072 26.893-26.902 26.893zm0-67.792c-22.55 0-40.899 18.349-40.899 40.899s18.349 40.89 40.899 40.89c22.551 0 40.904-18.34 40.904-40.89s-18.354-40.899-40.904-40.899zm341.284 184.642c14.825 0 26.911 12.058 26.911 26.897 0 14.83-12.087 26.893-26.911 26.893-14.835 0-26.902-12.063-26.902-26.893 0-14.839 12.068-26.897 26.902-26.897zm0 67.787c22.536 0 40.885-18.349 40.885-40.89 0-22.55-18.349-40.899-40.885-40.899-22.551 0-40.904 18.349-40.904 40.899 0 22.541 18.354 40.89 40.904 40.89zm0-238.427c14.825 0 26.911 12.068 26.911 26.898 0 14.834-12.087 26.893-26.911 26.893-14.835 0-26.902-12.059-26.902-26.893 0-14.83 12.068-26.898 26.902-26.898zm0 67.787c22.536 0 40.885-18.34 40.885-40.89 0-22.551-18.349-40.899-40.885-40.899-22.551 0-40.904 18.349-40.904 40.899 0 22.551 18.354 40.89 40.904 40.89zm44.178-193.237c-3.199 7.749-1.976 16.18 3.199 22.531l-6.54 6.535c-6.352-5.156-14.82-6.408-22.536-3.199-7.763 3.213-12.835 10.049-13.686 18.203h-9.236c-.852-8.163-5.924-15.004-13.672-18.212-7.739-3.209-16.18-1.957-22.541 3.209l-6.53-6.535c5.161-6.352 6.403-14.783 3.19-22.531-3.209-7.749-10.05-12.83-18.189-13.682v-9.231c8.139-.847 14.98-5.928 18.189-13.677 3.213-7.754 1.971-16.18-3.19-22.532l6.53-6.54c6.361 5.161 14.778 6.408 22.531 3.2 7.749-3.209 12.83-10.05 13.682-18.198h9.236c.852 8.149 5.923 14.99 13.686 18.198 7.716 3.208 16.185 1.962 22.536-3.2l6.54 6.54c-5.175 6.352-6.399 14.778-3.199 22.532 3.199 7.749 10.021 12.83 18.161 13.677v9.231c-8.139.851-14.961 5.932-18.161 13.681zm-106.54 147.727v9.231c8.139.852 14.98 5.928 18.189 13.682 3.213 7.749 1.971 16.18-3.19 22.527l6.53 6.544c6.361-5.171 14.801-6.422 22.541-3.213 7.749 3.213 12.821 10.049 13.672 18.212h9.236c.852-8.153 5.923-14.99 13.686-18.198 7.716-3.213 16.185-1.962 22.536 3.199l6.54-6.544c-5.175-6.347-6.399-14.778-3.199-22.527 3.199-7.754 10.021-12.83 18.161-13.682v-9.231c-8.139-.847-14.961-5.928-18.161-13.677-3.199-7.754-1.976-16.18 3.199-22.531l-6.54-6.54c-6.352 5.161-14.82 6.408-22.536 3.199-7.763-3.208-12.835-10.049-13.686-18.198h-9.236c-.852 8.149-5.933 14.99-13.682 18.198-7.754 3.209-16.171 1.962-22.531-3.199l-6.53 6.54c5.161 6.351 6.403 14.778 3.19 22.531-3.209 7.749-10.05 12.83-18.189 13.677zm21.529 127.892-6.53 6.53c5.161 6.361 6.403 14.792 3.19 22.541-3.209 7.749-10.05 12.83-18.189 13.677v9.231c8.139.852 14.98 5.933 18.189 13.682 3.213 7.749 1.971 16.18-3.19 22.527l6.53 6.545c6.361-5.171 14.801-6.422 22.541-3.214 7.749 3.214 12.821 10.055 13.672 18.203h9.236c.852-8.139 5.923-14.98 13.686-18.189 7.716-3.213 16.185-1.962 22.536 3.2l6.54-6.545c-5.175-6.347-6.399-14.778-3.199-22.527 3.199-7.749 10.021-12.83 18.161-13.682v-9.231c-8.139-.847-14.961-5.928-18.161-13.677-3.199-7.749-1.976-16.18 3.199-22.541l-6.54-6.53c-6.352 5.161-14.82 6.408-22.536 3.199-7.763-3.209-12.835-10.05-13.686-18.198h-9.236c-.852 8.149-5.933 14.99-13.672 18.198-7.749 3.209-16.18 1.962-22.541-3.199zm-99.54-52.182h-60.542v-142.189h60.542zm-138.548-66.479v-9.231c-8.144-.847-14.98-5.928-18.189-13.677-3.213-7.754-1.971-16.18 3.19-22.531l-6.53-6.54c-6.361 5.161-14.783 6.408-22.541 3.199-7.754-3.208-12.821-10.049-13.672-18.198h-9.24c-.847 8.149-5.919 14.99-13.668 18.198-7.754 3.209-16.18 1.962-22.541-3.199l-6.531 6.54c5.161 6.351 6.399 14.778 3.19 22.531-3.209 7.749-10.05 12.83-18.189 13.677v9.231c8.139.852 14.98 5.928 18.189 13.682 3.209 7.749 1.971 16.18-3.19 22.527l6.531 6.544c6.361-5.171 14.801-6.422 22.541-3.213 7.749 3.213 12.821 10.049 13.668 18.212h9.24c.852-8.153 5.919-14.99 13.672-18.198 7.749-3.213 16.18-1.962 22.541 3.199l6.53-6.544c-5.161-6.347-6.403-14.778-3.19-22.527 3.208-7.754 10.044-12.83 18.189-13.682zm14.288 143.653c9.419 0 17.078 7.659 17.078 17.078 0 9.41-7.659 17.079-17.078 17.079s-17.079-7.669-17.079-17.079c0-9.419 7.66-17.078 17.079-17.078zm0-330.689c9.419 0 17.078 7.669 17.078 17.079 0 9.419-7.659 17.078-17.078 17.078s-17.079-7.66-17.079-17.078c0-9.41 7.66-17.079 17.079-17.079zm329.419 30.28c6.399 0 11.574-5.194 11.574-11.565v-13.869c0-6.37-5.175-11.56-11.574-11.56-5.128 0-7.198-3.947-7.669-5.157-.518-1.214-1.882-5.443 1.788-9.094 4.47-4.507 4.47-11.837 0-16.349l-9.833-9.8c-2.164-2.188-5.081-3.388-8.139-3.388-3.105 0-6.022 1.2-8.187 3.388-3.67 3.651-7.904 2.301-9.08 1.802-1.223-.508-5.175-2.541-5.175-7.711 0-6.37-5.185-11.56-11.55-11.56h-13.879c-6.375 0-11.555 5.189-11.555 11.56 0 5.171-3.947 7.203-5.156 7.711-1.209.499-5.453 1.849-9.099-1.802-2.183-2.188-5.081-3.388-8.173-3.388-3.091 0-5.989 1.2-8.167 3.388l-9.814 9.81c-4.498 4.502-4.498 11.833 0 16.34 3.651 3.651 2.301 7.881 1.802 9.094-.499 1.209-2.541 5.157-7.711 5.157-6.37 0-11.55 5.19-11.55 11.56v13.869c0 6.37 5.18 11.565 11.55 11.565 5.17 0 7.212 3.947 7.711 5.156s1.849 5.439-1.802 9.09c-4.498 4.512-4.498 11.842 0 16.349l.772.772-68.239 98.402v-55.719c0-3.872-3.129-7.001-7.001-7.001h-74.539c-3.872 0-7.001 3.129-7.001 7.001v71.099h-50.012c-.038-6.352-5.199-11.503-11.546-11.503-5.175 0-7.212-3.948-7.711-5.157-.503-1.214-1.849-5.444 1.797-9.094 4.512-4.507 4.502-11.838 0-16.349l-9.81-9.8c-2.178-2.188-5.077-3.387-8.168-3.387s-5.994 1.2-8.172 3.378c-3.651 3.66-7.89 2.31-9.099 1.802-1.209-.499-5.161-2.531-5.161-7.702 0-6.347-5.147-11.517-11.489-11.55v-81.989h39.37c3.19 13.776 15.55 24.079 30.28 24.079 17.14 0 31.08-13.94 31.08-31.08 0-17.13-13.94-31.08-31.08-31.08-14.731 0-27.09 10.308-30.28 24.079h-46.373c-3.867 0-7.001 3.138-7.001 7.001v88.987c-6.337.033-11.489 5.204-11.489 11.55 0 5.171-3.947 7.203-5.156 7.702-1.214.508-5.453 1.858-9.104-1.802-2.178-2.178-5.077-3.378-8.167-3.378-3.091 0-5.989 1.2-8.172 3.387l-9.81 9.8c-2.178 2.192-3.378 5.091-3.378 8.182 0 3.082 1.2 5.98 3.378 8.168 3.651 3.651 2.301 7.881 1.802 9.094-.499 1.209-2.54 5.157-7.702 5.157-6.38 0-11.56 5.189-11.56 11.56v13.87c0 6.37 5.18 11.56 11.56 11.56 5.161 0 7.203 3.952 7.702 5.161s1.849 5.439-1.802 9.09c-4.498 4.512-4.498 11.842 0 16.349l9.81 9.8c2.183 2.193 5.081 3.392 8.172 3.392s5.989-1.2 8.167-3.392c3.66-3.66 7.89-2.31 9.104-1.806 1.209.508 5.156 2.536 5.156 7.716 0 6.352 5.152 11.522 11.489 11.55v88.992c0 3.858 3.133 7.001 7.001 7.001h46.371c3.19 13.771 15.55 24.079 30.28 24.079 17.14 0 31.08-13.95 31.08-31.08 0-17.14-13.94-31.08-31.08-31.08-14.731 0-27.09 10.299-30.28 24.079h-39.37v-81.991c6.342-.028 11.489-5.199 11.489-11.55 0-5.157 3.952-7.198 5.161-7.697s5.448-1.858 9.099 1.788c2.178 2.193 5.081 3.392 8.172 3.392s5.989-1.2 8.168-3.392l9.81-9.81c4.502-4.498 4.502-11.828 0-16.34-3.646-3.651-2.301-7.881-1.797-9.09.499-1.209 2.536-5.161 7.711-5.161 6.347 0 11.508-5.147 11.546-11.489h50.012v71.09c0 3.867 3.129 7.001 7.001 7.001h74.539c3.872 0 7.001-3.134 7.001-7.001v-55.719l68.239 98.402-.772.776c-4.507 4.502-4.498 11.833 0 16.34 3.651 3.651 2.301 7.881 1.802 9.09-.499 1.214-2.541 5.161-7.711 5.161-6.37 0-11.55 5.19-11.55 11.56v13.87c0 6.37 5.18 11.56 11.55 11.56 5.17 0 7.212 3.952 7.711 5.161s1.849 5.443-1.802 9.09c-4.507 4.512-4.498 11.842 0 16.34l9.814 9.81c2.178 2.192 5.076 3.392 8.167 3.392s5.989-1.2 8.173-3.392c3.656-3.66 7.89-2.31 9.099-1.807 1.209.499 5.156 2.541 5.156 7.716 0 6.371 5.18 11.551 11.555 11.551h13.879c6.366 0 11.55-5.18 11.55-11.551 0-5.166 3.952-7.198 5.175-7.706 1.176-.503 5.411-1.854 9.08 1.797 2.164 2.192 5.081 3.392 8.187 3.392 3.058 0 5.975-1.2 8.139-3.392l9.833-9.8c2.164-2.188 3.387-5.091 3.387-8.177 0-3.082-1.223-5.989-3.387-8.172-3.67-3.646-2.306-7.881-1.788-9.09.471-1.209 2.541-5.161 7.669-5.161 6.399 0 11.574-5.189 11.574-11.56v-13.87c0-6.37-5.175-11.56-11.574-11.56-5.128 0-7.198-3.947-7.669-5.161-.518-1.209-1.882-5.439 1.788-9.09 2.164-2.178 3.387-5.086 3.387-8.167 0-3.091-1.223-5.989-3.387-8.182l-9.833-9.8c-2.164-2.188-5.081-3.387-8.139-3.387-3.105 0-6.022 1.2-8.187 3.378-3.67 3.66-7.904 2.31-9.08 1.802-1.223-.504-5.175-2.531-5.175-7.702 0-6.37-5.185-11.56-11.55-11.56h-13.879c-6.375 0-11.555 5.19-11.555 11.56 0 5.171-3.947 7.198-5.156 7.702-1.209.508-5.453 1.858-9.099-1.802-2.183-2.178-5.081-3.378-8.173-3.378-2.597 0-5.072.871-7.09 2.442l-71.979-103.796h43.628c.042 6.342 5.204 11.489 11.55 11.489 5.17 0 7.212 3.952 7.711 5.161s1.849 5.439-1.802 9.09c-4.498 4.512-4.498 11.842 0 16.349l9.814 9.8c2.178 2.193 5.076 3.392 8.167 3.392s5.989-1.2 8.173-3.392c3.656-3.66 7.89-2.31 9.099-1.806 1.209.508 5.156 2.536 5.156 7.716 0 6.37 5.18 11.56 11.555 11.56h13.879c6.366 0 11.55-5.189 11.55-11.56 0-5.157 3.952-7.198 5.175-7.697 1.176-.499 5.411-1.858 9.08 1.788 2.164 2.193 5.081 3.392 8.187 3.392 3.058 0 5.975-1.2 8.139-3.392l9.833-9.8c4.47-4.507 4.47-11.837 0-16.349-3.67-3.651-2.306-7.881-1.788-9.09.471-1.209 2.541-5.161 7.669-5.161 6.399 0 11.574-5.189 11.574-11.56v-13.87c0-6.37-5.175-11.56-11.574-11.56-5.128 0-7.198-3.948-7.669-5.157-.518-1.214-1.882-5.444 1.788-9.094 2.164-2.188 3.387-5.086 3.387-8.168 0-3.091-1.223-5.989-3.387-8.172l-9.833-9.81c-2.164-2.188-5.081-3.387-8.139-3.387-3.105 0-6.022 1.2-8.187 3.378-3.67 3.66-7.904 2.31-9.08 1.802-1.223-.499-5.175-2.531-5.175-7.702 0-6.37-5.185-11.56-11.55-11.56h-13.879c-6.375 0-11.555 5.189-11.555 11.56 0 5.171-3.947 7.203-5.156 7.702-1.209.508-5.453 1.858-9.099-1.802-2.183-2.178-5.081-3.378-8.173-3.378-3.091 0-5.989 1.2-8.167 3.378l-9.814 9.81c-4.498 4.512-4.507 11.842 0 16.349 3.651 3.651 2.301 7.881 1.802 9.094-.499 1.209-2.541 5.157-7.711 5.157-6.347 0-11.508 5.152-11.55 11.503h-43.628l71.979-103.803c2.018 1.571 4.493 2.442 7.09 2.442 3.091 0 5.989-1.2 8.173-3.383 3.656-3.67 7.89-2.32 9.099-1.821 1.209.513 5.156 2.541 5.156 7.72 0 6.371 5.18 11.564 11.555 11.564h13.879c6.366 0 11.55-5.194 11.55-11.564 0-5.166 3.952-7.198 5.175-7.697 1.176-.513 5.411-1.863 9.08 1.788 2.164 2.192 5.081 3.392 8.187 3.392 3.058 0 5.975-1.2 8.139-3.383l9.833-9.81c4.47-4.507 4.47-11.837 0-16.349-3.67-3.651-2.306-7.881-1.788-9.09.472-1.207 2.543-5.155 7.671-5.155zm-64.786 8.398c14.825 0 26.911-12.063 26.911-26.893 0-14.829-12.087-26.897-26.911-26.897-14.835 0-26.902 12.068-26.902 26.897 0 14.83 12.068 26.893 26.902 26.893zm0-67.792c-22.551 0-40.904 18.349-40.904 40.899s18.353 40.89 40.904 40.89c22.536 0 40.885-18.339 40.885-40.89 0-22.55-18.349-40.899-40.885-40.899z"/></g></svg>