<svg id="Layer_1" height="512" viewBox="0 0 64 64" width="512" xmlns="http://www.w3.org/2000/svg"><g><path d="m55.6 55.6-1.9-9.3c-1.8-8.9-9.7-15.3-18.8-15.3h-6.2c-9.4 0-17.4 6.8-18.9 16.1l-1.4 8.8c-.2 1.4.2 2.9 1.1 4s2.3 1.7 3.7 1.7h12.4 13 12.4c1.5 0 2.9-.7 3.8-1.8.8-1.2 1.1-2.7.8-4.2zm-20.7-21.6c.4 0 .9 0 1.3.1-.4 2-2.1 3.5-4.2 3.5-2.1 0-3.8-1.5-4.2-3.5h.9 6.2zm-21.8 24.5c-.6 0-1.1-.2-1.4-.7-.4-.4-.5-1-.4-1.5l1.4-8.8c1.1-6.5 5.9-11.6 12.1-13.1.3 2 1.5 3.7 3.1 4.8l-2.1 19.2h-12.7zm15.7 0 1.9-18h1.2.1.1 1.2l1.9 18zm23.5-.7c-.4.4-.9.7-1.5.7h-12.6l-2.1-19.2c1.6-1.1 2.7-2.8 3-4.7 5.8 1.6 10.4 6.3 11.6 12.4l1.9 9.3c.2.5.1 1.1-.3 1.5z"/><path d="m32 29c7.3 0 13.3-6 13.3-13.3s-6-13.2-13.3-13.2-13.3 6-13.3 13.3 6 13.2 13.3 13.2zm0-23.5c5.7 0 10.3 4.6 10.3 10.3s-4.6 10.2-10.3 10.2-10.3-4.6-10.3-10.3 4.6-10.2 10.3-10.2z"/></g></svg>