<svg id="Layer_1" enable-background="new 0 0 512 512" height="512" viewBox="0 0 512 512" width="512" xmlns="http://www.w3.org/2000/svg"><g clip-rule="evenodd" fill-rule="evenodd"><g><path d="m29.575 402.663h101.044c8.262 0 15 6.738 15 15v62.883c0 8.262-6.738 15-15 15h-101.044c-8.262 0-15-6.738-15-15v-62.883c0-8.262 6.738-15 15-15z" fill="#fdcd56"/><path d="m205.62 402.663h101.044c8.262 0 15 6.738 15 15v62.883c0 8.262-6.738 15-15 15h-101.044c-8.262 0-15-6.738-15-15v-62.883c0-8.262 6.739-15 15-15z" fill="#66d4f1"/><path d="m380.245 402.663h102.033c8.342 0 15.147 6.804 15.147 15.147v63.498c0 8.342-6.804 15.147-15.147 15.147h-102.033c-8.342 0-15.147-6.804-15.147-15.147v-63.498c0-8.343 6.805-15.147 15.147-15.147z" fill="#f76c82"/><g><path d="m372.931 161.256c-24.616 0-36.967 29.822-19.562 47.227 3.206 3.206 3.206 8.407 0 11.613l-17.678 17.678c-3.206 3.206-8.407 3.206-11.613 0-17.405-17.405-47.227-5.054-47.227 19.562 0 4.536-3.677 8.211-8.211 8.211h-24.999c-4.534 0-8.211-3.674-8.211-8.211 0-24.646-29.8-36.989-47.227-19.562-3.206 3.206-8.407 3.206-11.612 0l-17.678-17.678c-3.206-3.206-3.206-8.407 0-11.613 17.405-17.405 5.055-47.227-19.562-47.227-4.536 0-8.211-3.677-8.211-8.211v-24.998c0-4.534 3.675-8.211 8.211-8.211 24.616 0 36.967-29.822 19.562-47.227-3.206-3.206-3.206-8.406 0-11.613l17.678-17.678c3.206-3.206 8.407-3.206 11.612 0 17.405 17.405 47.227 5.054 47.227-19.562 0-4.536 3.677-8.211 8.211-8.211h24.999c4.534 0 8.211 3.675 8.211 8.211 0 24.616 29.822 36.967 47.227 19.562 3.206-3.206 8.407-3.206 11.613 0l17.678 17.678c3.206 3.206 3.206 8.407 0 11.613-17.405 17.405-5.054 47.227 19.562 47.227 4.537 0 8.211 3.677 8.211 8.211v24.998c0 4.534-3.674 8.211-8.211 8.211zm-116.789-80.77c-33.17 0-60.059 26.889-60.059 60.059s26.889 60.059 60.059 60.059 60.06-26.889 60.06-60.059-26.89-60.059-60.06-60.059z" fill="#636c77"/><path d="m284.246 141.812-41.579 24.006c-.978.565-2.194-.137-2.194-1.267v-48.011c0-1.13 1.215-1.831 2.194-1.267l41.579 24.006c.972.561.972 1.972 0 2.533z" fill="#f76c82"/></g></g><path d="m247.467 154.956v-28.829l24.968 14.42zm40.279-21.74-41.578-24.011c-2.612-1.509-5.863-1.509-8.47 0-2.612 1.511-4.235 4.31-4.235 7.33v48.011c0 3.02 1.623 5.828 4.235 7.33 1.308.759 2.767 1.129 4.226 1.129 1.473 0 2.932-.37 4.244-1.129l41.578-24c0-.011 0-.011 0-.011 2.612-1.5 4.23-4.31 4.23-7.319 0-3.019-1.619-5.82-4.23-7.33zm-31.612 60.391c29.259 0 53.059-23.811 53.059-53.06 0-29.261-23.801-53.061-53.059-53.061-29.25 0-53.059 23.8-53.059 53.061 0 29.249 23.809 53.06 53.059 53.06zm67.058-53.06c0-36.981-30.078-67.061-67.058-67.061-36.971 0-67.058 30.08-67.058 67.061 0 36.969 30.087 67.059 67.058 67.059 36.981 0 67.058-30.09 67.058-67.059zm167.23 340.758c0 4.49-3.656 8.15-8.15 8.15h-102.025c-4.503 0-8.15-3.66-8.15-8.15v-63.499c0-4.491 3.647-8.15 8.15-8.15h102.025c4.494 0 8.15 3.659 8.15 8.15zm-175.756-63.649v62.89c0 4.41-3.59 7.999-7.999 7.999h-101.051c-4.414 0-7.999-3.59-7.999-7.999v-62.89c0-4.41 3.585-7.999 7.999-7.999h101.051c4.409-.001 7.999 3.589 7.999 7.999zm-176.052 0v62.89c0 4.41-3.59 7.999-8 7.999h-101.036c-4.414 0-8.004-3.59-8.004-7.999v-62.89c0-4.41 3.59-7.999 8.004-7.999h101.037c4.409-.001 7.999 3.589 7.999 7.999zm103.813-160.33c0 .669.546 1.22 1.21 1.22h25c.668 0 1.209-.552 1.209-1.22 0-14.269 8.206-26.529 21.41-31.999 13.199-5.47 27.678-2.601 37.767 7.49.471.479 1.242.479 1.713 0l17.678-17.672c.471-.48.471-1.239 0-1.718-10.089-10.092-12.959-24.561-7.491-37.771 5.473-13.199 17.73-21.399 32.002-21.399.668 0 1.209-.551 1.209-1.212v-25c0-.669-.541-1.209-1.209-1.209-14.272 0-26.53-8.211-32.002-21.41-5.468-13.21-2.597-27.68 7.491-37.769.471-.471.471-1.24 0-1.711l-17.678-17.679c-.471-.471-1.242-.471-1.713 0-10.089 10.09-24.568 12.959-37.767 7.489-13.204-5.468-21.41-17.728-21.41-31.999 0-.668-.541-1.209-1.209-1.209h-25c-.664 0-1.21.541-1.21 1.209 0 14.271-8.202 26.53-21.401 31.999-13.208 5.47-27.683 2.601-37.771-7.489-.301-.29-.63-.36-.861-.36-.23 0-.56.07-.861.36l-17.669 17.679c-.48.471-.48 1.241 0 1.711 10.089 10.09 12.964 24.559 7.491 37.769-5.468 13.2-17.73 21.41-32.012 21.41-.659 0-1.21.54-1.21 1.209v25c0 .66.551 1.212 1.21 1.212 14.281 0 26.544 8.199 32.012 21.399 5.472 13.21 2.597 27.68-7.491 37.771-.48.479-.48 1.239 0 1.718l17.669 17.672c.301.299.631.358.861.358.231 0 .56-.059.861-.358 6.71-6.711 15.368-10.24 24.29-10.24 4.499 0 9.058.899 13.481 2.729 13.199 5.471 21.401 17.74 21.401 32.02zm239.845 138.33h-44.66v-68.379c0-1.86-.739-3.641-2.057-4.961-1.322-1.3-3.091-2.04-4.941-2.04-.009 0-.019 0-.042 0l-165.87.801v-48.531h3.934c8.39 0 15.208-6.83 15.208-15.219 0-10.161 6.602-16.51 12.771-19.07 6.169-2.549 15.316-2.72 22.511 4.461 2.866 2.879 6.686 4.459 10.757 4.459 4.061 0 7.882-1.581 10.752-4.459l17.679-17.671c5.929-5.939 5.929-15.579 0-21.518-7.19-7.182-7.011-16.341-4.461-22.511 2.56-6.171 8.912-12.76 19.072-12.76 8.39 0 15.208-6.83 15.208-15.21v-25c0-8.389-6.818-15.21-15.208-15.21-10.159 0-16.512-6.599-19.072-12.769-2.55-6.17-2.729-15.33 4.461-22.509 5.929-5.932 5.929-15.582 0-21.511l-17.679-17.679c-2.87-2.871-6.691-4.461-10.752-4.461-4.07 0-7.891 1.59-10.757 4.461-7.195 7.189-16.342 7.009-22.511 4.459-6.169-2.56-12.771-8.909-12.771-19.07 0-8.39-6.819-15.213-15.208-15.213h-25c-8.381 0-15.213 6.823-15.213 15.213 0 10.16-6.588 16.509-12.762 19.07-6.164 2.561-15.326 2.73-22.507-4.459-2.88-2.871-6.701-4.461-10.762-4.461s-7.877 1.59-10.761 4.461l-17.669 17.679c-2.88 2.871-4.456 6.69-4.456 10.751 0 4.07 1.576 7.889 4.456 10.761 7.18 7.179 7.011 16.338 4.461 22.509-2.56 6.171-8.908 12.769-19.081 12.769-8.381 0-15.208 6.821-15.208 15.21v25c0 8.38 6.828 15.21 15.208 15.21 10.173 0 16.521 6.589 19.081 12.76 2.55 6.17 2.719 15.33-4.461 22.511-2.88 2.878-4.456 6.7-4.456 10.758 0 4.06 1.576 7.88 4.456 10.76l17.669 17.671c2.885 2.879 6.701 4.459 10.761 4.459s7.882-1.581 10.762-4.459c7.19-7.191 16.347-7.031 22.521-4.482 6.16 2.561 12.747 8.92 12.747 19.091 0 8.389 6.832 15.219 15.213 15.219h7.068v48.601l-170.49.82c-3.849.02-6.96 3.15-6.96 6.999v66.689h-43.675c-12.136 0-22.003 9.871-22.003 22v62.89c0 12.13 9.867 22 22.003 22h101.037c12.131 0 22.003-9.871 22.003-22v-62.89c0-12.13-9.872-22-22.003-22h-43.362v-59.72l163.451-.791v60.51h-45.089c-12.131 0-21.998 9.871-21.998 22v62.89c0 12.13 9.867 22 21.998 22h101.051c12.126 0 21.998-9.871 21.998-22v-62.89c0-12.13-9.872-22-21.998-22h-41.964v-60.58l158.91-.759v61.339h-43.366c-12.22 0-22.154 9.94-22.154 22.151v63.499c0 12.211 9.933 22.151 22.154 22.151h102.025c12.211 0 22.154-9.941 22.154-22.151v-63.499c.001-12.21-9.942-22.15-22.153-22.15z"/></g></svg>