<svg id="Capa_1" enable-background="new 0 0 512 512" height="512" viewBox="0 0 512 512" width="512" xmlns="http://www.w3.org/2000/svg"><g><g><path d="m474.5 504.5h-437c-16.569 0-30-13.431-30-30v-377l11.745-53.308c0-16.569 9.126-26.812 25.695-26.812l429.56 6.145c16.569 0 22.886 9.734 22.886 26.302l7.114 47.673v377c0 16.569-13.431 30-30 30z" fill="#e5edfc"/><path d="m474.5 13.9-30 1.793c16.569 0 30 5.238 30 21.807v60 377c0 16.569-13.431 30-30 30h30c16.569 0 30-13.431 30-30v-377l-5.894-55.81c0-16.568-7.537-27.79-24.106-27.79z" fill="#d1d9fc"/><path d="m474.5 7.5h-437c-16.569 0-30 13.431-30 30v60h497v-60c0-16.569-13.431-30-30-30z" fill="#695d69"/><path d="m474.5 7.5h-30c16.569 0 30 13.431 30 30v60h30v-60c0-16.569-13.431-30-30-30z" fill="#564e57"/><circle cx="52.5" cy="52.5" fill="#fd4755" r="15"/><circle cx="112.5" cy="52.5" fill="#ffc344" r="15"/><circle cx="172.5" cy="52.5" fill="#a0e38b" r="15"/><g><path d="m111.105 286.17h-33.605c-5.523 0-10-4.477-10-10v-33.605c0-5.523 4.477-10 10-10h33.605c5.523 0 10 4.477 10 10v33.605c0 5.523-4.478 10-10 10z" fill="#d1d9fc"/><path d="m111.104 232.566h-30c5.523 0 10 4.477 10 10v33.605c0 5.523-4.477 10-10 10h30c5.523 0 10-4.477 10-10v-33.605c0-5.523-4.477-10-10-10z" fill="#b6c9fd"/><path d="m111.105 376.17h-33.605c-5.523 0-10-4.477-10-10v-33.605c0-5.523 4.477-10 10-10h33.605c5.523 0 10 4.477 10 10v33.605c0 5.523-4.478 10-10 10z" fill="#d1d9fc"/><path d="m111.104 322.566h-30c5.523 0 10 4.477 10 10v33.605c0 5.523-4.477 10-10 10h30c5.523 0 10-4.477 10-10v-33.605c0-5.523-4.477-10-10-10z" fill="#b6c9fd"/><path d="m111.105 466.17h-33.605c-5.523 0-10-4.477-10-10v-33.605c0-5.523 4.477-10 10-10h33.605c5.523 0 10 4.477 10 10v33.605c0 5.523-4.478 10-10 10z" fill="#d1d9fc"/><path d="m111.104 412.566h-30c5.523 0 10 4.477 10 10v33.605c0 5.523-4.477 10-10 10h30c5.523 0 10-4.477 10-10v-33.605c0-5.523-4.477-10-10-10z" fill="#b6c9fd"/></g></g><path d="m170.741 270.066h198.759c4.142 0 7.5-3.358 7.5-7.5s-3.358-7.5-7.5-7.5h-198.759c-4.142 0-7.5 3.358-7.5 7.5s3.358 7.5 7.5 7.5zm333.759 51.011c4.142 0 7.5-3.358 7.5-7.5v-276.077c0-20.678-16.822-37.5-37.5-37.5h-437c-20.678 0-37.5 16.822-37.5 37.5v437c0 20.678 16.822 37.5 37.5 37.5h437c20.678 0 37.5-16.822 37.5-37.5v-125.923c0-4.142-3.358-7.5-7.5-7.5s-7.5 3.358-7.5 7.5v125.923c0 12.407-10.093 22.5-22.5 22.5h-437c-12.407 0-22.5-10.093-22.5-22.5v-369.5h81.104c4.142 0 7.5-3.358 7.5-7.5s-3.358-7.5-7.5-7.5h-81.104v-52.5c0-12.407 10.093-22.5 22.5-22.5h437c12.407 0 22.5 10.093 22.5 22.5v52.5h-365.896c-4.142 0-7.5 3.358-7.5 7.5s3.358 7.5 7.5 7.5h365.896v208.577c0 4.142 3.358 7.5 7.5 7.5zm-52.5 91.489c0-4.142-3.358-7.5-7.5-7.5h-273.759c-4.142 0-7.5 3.358-7.5 7.5s3.358 7.5 7.5 7.5h273.759c4.142 0 7.5-3.358 7.5-7.5zm-7.5-187.5h-273.759c-4.142 0-7.5 3.358-7.5 7.5s3.358 7.5 7.5 7.5h273.759c4.142 0 7.5-3.358 7.5-7.5s-3.358-7.5-7.5-7.5zm0 90h-273.759c-4.142 0-7.5 3.358-7.5 7.5s3.358 7.5 7.5 7.5h273.759c4.142 0 7.5-3.358 7.5-7.5s-3.358-7.5-7.5-7.5zm-273.759 120c-4.142 0-7.5 3.358-7.5 7.5s3.358 7.5 7.5 7.5h198.759c4.142 0 7.5-3.358 7.5-7.5s-3.358-7.5-7.5-7.5zm-5.078-235.9c4.142 0 7.5-3.358 7.5-7.5v-46.336h7.426c4.142 0 7.5-3.358 7.5-7.5s-3.358-7.5-7.5-7.5h-29.731c-4.142 0-7.5 3.358-7.5 7.5s3.358 7.5 7.5 7.5h7.306v46.336c-.001 4.142 3.357 7.5 7.499 7.5zm5.078 160.9h198.759c4.142 0 7.5-3.358 7.5-7.5s-3.358-7.5-7.5-7.5h-198.759c-4.142 0-7.5 3.358-7.5 7.5s3.358 7.5 7.5 7.5zm24.98-160.898c3.022 0 5.871-1.84 7.01-4.833l3.195-8.389h22.126l3.158 8.367c1.463 3.875 5.788 5.832 9.665 4.369 3.875-1.462 5.832-5.79 4.369-9.665l-20.032-53.081c-.026-.069-.053-.138-.081-.206-1.351-3.283-4.515-5.402-8.064-5.402-.003 0-.006 0-.009 0-3.552.004-6.717 2.13-8.062 5.418-.023.057-.046.113-.067.17l-20.215 53.078c-1.474 3.871.468 8.204 4.339 9.678.879.338 1.781.496 2.668.496zm21.32-42.402 5.352 14.181h-10.753zm-82.041-104.266c0-12.407-10.093-22.5-22.5-22.5s-22.5 10.093-22.5 22.5 10.093 22.5 22.5 22.5 22.5-10.093 22.5-22.5zm-22.5 7.5c-4.136 0-7.5-3.364-7.5-7.5s3.364-7.5 7.5-7.5 7.5 3.364 7.5 7.5-3.364 7.5-7.5 7.5zm16.104 182.566c0-9.649-7.851-17.5-17.5-17.5h-33.604c-9.649 0-17.5 7.851-17.5 17.5v33.604c0 9.649 7.851 17.5 17.5 17.5h33.604c9.649 0 17.5-7.851 17.5-17.5zm-15 33.604c0 1.378-1.122 2.5-2.5 2.5h-33.604c-1.378 0-2.5-1.122-2.5-2.5v-33.604c0-1.378 1.122-2.5 2.5-2.5h33.604c1.378 0 2.5 1.122 2.5 2.5zm173.384-92.004c-5.137 0-10.073-2.062-13.203-5.517-2.781-3.069-7.524-3.303-10.594-.521s-3.303 7.524-.521 10.594c6.015 6.638 14.878 10.444 24.318 10.444 11.719 0 21.566-7.507 23.413-17.85 1.395-7.813-2.113-18.006-16.142-23.181-6.483-2.391-12.527-4.993-14.517-5.862-1.041-.891-1.059-2.07-.963-2.732.115-.804.711-2.772 3.741-3.685 7.159-2.154 13.875 3.1 14.106 3.285 3.171 2.627 7.871 2.207 10.524-.951 2.665-3.171 2.255-7.902-.915-10.567-.521-.438-12.938-10.68-28.042-6.129-7.722 2.326-13.188 8.425-14.263 15.916-1.012 7.047 2.044 13.827 7.975 17.694.332.216.679.405 1.041.566.312.14 7.749 3.45 16.122 6.539 1.7.627 7.196 2.946 6.567 6.471-.482 2.696-3.848 5.486-8.647 5.486zm-256.988-131.666c0 12.407 10.093 22.5 22.5 22.5s22.5-10.093 22.5-22.5-10.093-22.5-22.5-22.5-22.5 10.093-22.5 22.5zm30 0c0 4.136-3.364 7.5-7.5 7.5s-7.5-3.364-7.5-7.5 3.364-7.5 7.5-7.5 7.5 3.364 7.5 7.5zm135 0c0-12.407-10.093-22.5-22.5-22.5s-22.5 10.093-22.5 22.5 10.093 22.5 22.5 22.5 22.5-10.093 22.5-22.5zm-30 0c0-4.136 3.364-7.5 7.5-7.5s7.5 3.364 7.5 7.5-3.364 7.5-7.5 7.5-7.5-3.364-7.5-7.5zm-53.896 352.566h-33.604c-9.649 0-17.5 7.851-17.5 17.5v33.604c0 9.649 7.851 17.5 17.5 17.5h33.604c9.649 0 17.5-7.851 17.5-17.5v-33.604c0-9.649-7.85-17.5-17.5-17.5zm2.5 51.104c0 1.378-1.122 2.5-2.5 2.5h-33.604c-1.378 0-2.5-1.122-2.5-2.5v-33.604c0-1.378 1.122-2.5 2.5-2.5h33.604c1.378 0 2.5 1.122 2.5 2.5zm216.668-325.84c-4.142 0-7.5 3.358-7.5 7.5v53.836c0 4.142 3.358 7.5 7.5 7.5s7.5-3.358 7.5-7.5v-12.127l18.164 17.524c1.456 1.404 3.332 2.103 5.207 2.103 1.964 0 3.927-.767 5.398-2.292 2.876-2.981 2.791-7.729-.19-10.605l-23.417-22.592 21.374-19.646c3.049-2.803 3.249-7.548.446-10.598-2.802-3.049-7.546-3.249-10.597-.446l-16.384 15.06v-10.217c-.001-4.142-3.359-7.5-7.501-7.5zm-201.668 202.236c0-9.649-7.851-17.5-17.5-17.5h-33.604c-9.649 0-17.5 7.851-17.5 17.5v33.604c0 9.649 7.851 17.5 17.5 17.5h33.604c9.649 0 17.5-7.851 17.5-17.5zm-15 33.604c0 1.378-1.122 2.5-2.5 2.5h-33.604c-1.378 0-2.5-1.122-2.5-2.5v-33.604c0-1.378 1.122-2.5 2.5-2.5h33.604c1.378 0 2.5 1.122 2.5 2.5z"/></g></svg>