<svg id="Layer_1" viewBox="0 0 64 64" xmlns="http://www.w3.org/2000/svg" data-name="Layer 1"><path d="m61 24.902h-4.591c-.521-1.792-1.234-3.517-2.129-5.144l3.246-3.246c.391-.391.391-1.023 0-1.414l-8.624-8.624c-.391-.391-1.023-.391-1.414 0l-3.246 3.246c-1.626-.895-3.351-1.609-5.143-2.129v-4.591c0-.552-.448-1-1-1h-12.196c-.552 0-1 .448-1 1v4.591c-1.792.521-3.517 1.234-5.143 2.129l-3.246-3.246c-.391-.391-1.023-.391-1.414 0l-8.625 8.625c-.391.391-.391 1.023 0 1.414l3.246 3.246c-.896 1.627-1.609 3.351-2.129 5.144h-4.592c-.552 0-1 .448-1 1v12.196c0 .553.448 1 1 1h4.591c.52 1.792 1.234 3.517 2.129 5.144l-3.246 3.246c-.391.391-.391 1.023 0 1.414l8.624 8.624c.375.375 1.039.375 1.414 0l3.246-3.245c1.627.895 3.352 1.608 5.144 2.128v4.592c0 .553.448 1 1 1h12.196c.552 0 1-.447 1-1v-4.592c1.792-.52 3.517-1.233 5.143-2.128l3.246 3.245c.391.391 1.023.391 1.414 0l8.624-8.624c.391-.391.391-1.023 0-1.414l-3.246-3.246c.896-1.627 1.609-3.352 2.129-5.144h4.591c.552 0 1-.447 1-1v-12.196c0-.552-.448-1-1-1zm-1 12.196h-4.354c-.456 0-.854.309-.968.751-.549 2.132-1.392 4.168-2.505 6.052-.232.393-.169.894.154 1.216l3.078 3.078-7.209 7.21-3.079-3.078c-.322-.321-.823-.386-1.216-.153-1.882 1.112-3.918 1.955-6.051 2.504-.442.114-.75.513-.75.969v4.354h-10.196v-4.354c0-.456-.309-.854-.751-.969-2.132-.549-4.168-1.392-6.051-2.505-.394-.231-.893-.168-1.216.154l-3.078 3.078-7.209-7.21 3.078-3.078c.323-.322.386-.823.154-1.216-1.113-1.884-1.957-3.92-2.505-6.052-.114-.442-.512-.751-.968-.751h-4.354v-10.196h4.354c.456 0 .854-.309.968-.751.549-2.132 1.392-4.168 2.505-6.051.232-.393.169-.893-.154-1.216l-3.078-3.078 7.209-7.209 3.079 3.078c.323.323.822.387 1.216.154 1.882-1.113 3.917-1.956 6.05-2.505.442-.114.751-.512.751-.968v-4.354h10.196v4.354c0 .456.309.854.75.968 2.134.549 4.169 1.392 6.051 2.505.394.232.893.169 1.216-.154l3.079-3.078 7.209 7.209-3.078 3.078c-.323.323-.386.823-.154 1.216 1.113 1.883 1.956 3.919 2.505 6.051.114.442.512.751.968.751h4.354z"/><path d="m32 12.84c-10.565 0-19.16 8.595-19.16 19.16 0 5.644 2.469 10.966 6.771 14.601 3.441 2.94 7.841 4.56 12.39 4.56.569 0 1.135-.025 1.697-.075 3.375-.3 6.609-1.49 9.358-3.444.459-.326.904-.673 1.335-1.041 0 0 .001-.002.002-.003 4.301-3.638 6.768-8.957 6.768-14.598 0-10.565-8.595-19.16-19.16-19.16zm-1.481 36.255c-.159-.014-.315-.042-.473-.06-.331-.038-.662-.075-.989-.132-.185-.032-.367-.078-.55-.117-.296-.062-.593-.122-.884-.199-.191-.051-.379-.114-.568-.171-.279-.084-.558-.167-.832-.265-.19-.068-.376-.147-.564-.222-.266-.106-.532-.213-.793-.332-.187-.086-.369-.18-.552-.272-.253-.127-.506-.256-.753-.396-.181-.103-.359-.213-.536-.323-.238-.147-.475-.297-.706-.455-.177-.122-.351-.25-.523-.379-.128-.095-.252-.195-.377-.294 1.538-4.464 5.796-7.527 10.58-7.527 2.99 0 5.8 1.164 7.913 3.276 1.204 1.205 2.117 2.664 2.666 4.252-.121.095-.241.192-.364.284-.181.135-.363.27-.549.397-.219.15-.442.291-.667.431-.191.118-.382.237-.577.347-.231.131-.468.251-.705.371-.198.1-.396.203-.598.295-.244.112-.494.211-.743.311-.203.081-.404.167-.61.24-.26.093-.524.171-.788.251-.202.061-.403.129-.608.183-.28.074-.565.131-.849.191-.194.041-.387.089-.583.124-.319.055-.641.091-.964.129-.165.019-.329.048-.495.063-.49.042-.984.066-1.479.066s-.99-.023-1.481-.066zm-5.106-19.734c0-3.632 2.955-6.586 6.586-6.586s6.586 2.955 6.586 6.586-2.955 6.586-6.586 6.586-6.586-2.955-6.586-6.586zm18.759 14.698c-.659-1.575-1.623-3.024-2.845-4.247-1.412-1.411-3.093-2.449-4.921-3.096 2.499-1.503 4.18-4.233 4.18-7.356 0-4.734-3.852-8.586-8.586-8.586s-8.586 3.852-8.586 8.586c0 3.123 1.681 5.853 4.18 7.356-3.469 1.234-6.321 3.888-7.763 7.346-3.18-3.194-4.991-7.506-4.991-12.063 0-9.462 7.698-17.16 17.16-17.16s17.16 7.698 17.16 17.16c0 4.554-1.809 8.864-4.988 12.059z"/></svg>