<svg height="496pt" viewBox="0 0 496.00128 496" width="496pt" xmlns="http://www.w3.org/2000/svg"><path d="m357.222656 443.214844h-349.222656v-78.351563c0-89.71875 70.078125-162.390625 156.601562-162.390625h36.40625c86.519532 0 156.601563 72.671875 156.601563 162.390625v78.351563zm0 0" fill="#fff"/><g fill="#1c7fff"><path d="m357.609375 451.207031h-349.609375c-4.425781 0-8-3.574219-8-8v-78.351562c0-93.949219 73.839844-170.390625 164.601562-170.390625h36.40625c90.761719 0 164.601563 76.441406 164.601563 170.390625v78.351562c0 4.425781-3.578125 8-8 8zm-341.609375-16h333.609375v-70.351562c0-85.136719-66.664063-154.390625-148.601563-154.390625h-36.40625c-81.9375.007812-148.601562 69.265625-148.601562 154.390625zm0 0"/><path d="m273.441406 439.441406c-4.425781 0-8-3.578125-8-8v-38.570312c0-4.421875 3.574219-8 8-8 4.421875 0 8 3.578125 8 8v38.570312c0 4.414063-3.585937 8-8 8zm0 0"/><path d="m91.785156 447.441406c-4.425781 0-8-3.578125-8-8v-46.570312c0-4.421875 3.574219-8 8-8 4.421875 0 8 3.578125 8 8v46.570312c0 4.414063-3.585937 8-8 8zm0 0"/></g><path d="m292.625 122.898438c0-63.457032-49.257812-114.898438-110.015625-114.898438-60.761719 0-110.015625 51.441406-110.015625 114.898438 0 63.453124 49.253906 114.894531 110.015625 114.894531 60.757813 0 110.015625-51.441407 110.015625-114.894531zm0 0" fill="#fff"/><path d="m182.609375 245.792969c-65.074219 0-118.007813-55.136719-118.007813-122.894531 0-67.761719 52.933594-122.898438 118.007813-122.898438 65.070313 0 118.015625 55.128906 118.015625 122.886719 0 67.761719-52.945312 122.90625-118.015625 122.90625zm0-229.792969c-56.25 0-102.007813 47.953125-102.007813 106.886719 0 58.945312 45.757813 106.898437 102.007813 106.898437 56.246094 0 102.015625-47.953125 102.015625-106.898437 0-58.933594-45.769531-106.886719-102.015625-106.886719zm0 0" fill="#1c7fff"/><path d="m480.878906 344.425781-26.046875-4.832031c-.535156-2.242188-.617187-4.402344-.960937-6.367188-.574219-2.011718-.839844-4.441406-1.640625-6.488281l21.96875-15.441406c3.753906-2.640625 4.703125-7.9375 2.074219-11.511719l-26.800782-39.710937c-2.59375-3.808594-7.800781-4.777344-11.328125-2.097657l-21.96875 15.441407c-1.609375-1.488281-3.519531-2.5625-5.390625-3.855469-1.648437-1.257812-3.785156-2.371094-5.519531-3.167969l4.757813-26.488281c.832031-4.609375-1.902344-8.921875-6.664063-9.800781l-46.65625-8.648438c-4.527344-.839843-8.773437 1.945313-9.648437 6.777344l-4.757813 26.484375c-2.207031.546875-4.328125.625-6.265625.984375-1.976562.585937-4.367188.859375-6.382812 1.671875l-15.175782-22.328125c-2.59375-3.804687-7.800781-4.773437-11.328125-2.09375l-39.113281 27.496094c-3.75 2.640625-4.703125 7.933593-2.070312 11.511719l15.175781 22.328124c-1.464844 1.632813-2.511719 3.574219-3.792969 5.480469-1.238281 1.671875-2.328125 3.847657-3.113281 5.605469l-26.046875-4.832031c-4.527344-.839844-8.777344 1.945312-9.648438 6.777343l-8.566406 47.671876c-1.058594 4.558593 1.902344 8.921874 6.207031 9.71875l26.046875 4.832031c.539063 2.242187.617188 4.402343.960938 6.371093.351562 1.964844.839844 4.4375 1.640625 6.488282l-21.511719 15.527344c-3.753906 2.640624-4.703125 7.933593-2.074219 11.511718l27.027344 39.75c2.589844 3.808594 7.796875 4.777344 11.328125 2.097656l21.964844-15.441406c1.609375 1.488282 3.519531 2.5625 5.394531 3.855469 1.648437 1.257813 3.78125 2.371094 5.519531 3.167969l-4.761718 26.488281c-.832032 4.609375 1.90625 8.921875 6.664062 9.800781l46.890625 8.6875c4.527344.839844 8.773437-1.941406 9.644531-6.773437l4.761719-26.488281c2.207031-.546876 4.328125-.625 6.265625-.984376 1.933594-.351562 4.367188-.855468 6.382812-1.671874l15.175782 22.328124c2.59375 3.816407 7.800781 4.773438 11.328125 2.09375l39.113281-27.496093c3.75-2.640625 4.703125-7.933594 2.070312-11.511719l-15.175781-22.328125c1.464844-1.632813 2.511719-3.574219 3.792969-5.480469 1.238281-1.671875 2.328125-3.847656 3.109375-5.605468l26.050781 4.832031c4.527344.839843 8.773438-1.945313 9.648438-6.777344l8.566406-47.671875c.144531-4.734375-2.59375-9.046875-7.121094-9.886719zm0 0" fill="#25e1bb"/><path d="m358.871094 496c-1.015625 0-2.046875-.09375-3.070313-.28125l-46.890625-8.6875c-8.957031-1.664062-14.703125-10.046875-13.078125-19.085938l3.742188-20.832031c-.519531-.34375-1.015625-.695312-1.476563-1.046875l-.601562-.394531-17.304688 12.167969c-3.128906 2.394531-7.496094 3.472656-11.734375 2.761718-4.378906-.714843-8.3125-3.234374-10.808593-6.914062l-27.023438-39.742188c-2.359375-3.207031-3.367188-7.480468-2.65625-11.785156.710938-4.34375 3.167969-8.273437 6.75-10.785156l16.9375-12.222656c-.136719-.65625-.25-1.28125-.351562-1.863282-.058594-.296874-.105469-.601562-.152344-.914062l-20.449219-3.789062c-4.191406-.785157-7.960937-3.296876-10.328125-6.90625-2.429688-3.710938-3.207031-8.144532-2.207031-12.488282l8.496093-47.277344c.792969-4.417968 3.183594-8.203124 6.75-10.671874 3.546876-2.457032 7.882813-3.363282 12.21875-2.5625l20.296876 3.769531c.316406-.503907.644531-.984375.972656-1.433594l.503906-.816406-12.070312-17.75c-2.351563-3.191407-3.359376-7.457031-2.664063-11.761719.710937-4.34375 3.167969-8.277344 6.742187-10.800781l39.128907-27.503907c3.136719-2.382812 7.511719-3.4375 11.738281-2.757812 4.375.710938 8.3125 3.230469 10.808594 6.910156l12.007812 17.65625c.222656-.054687.445313-.117187.664063-.175781l.8125-.191406c.28125-.054688.570312-.105469.859375-.144531l3.75-20.871094c.808594-4.433594 3.199218-8.207032 6.769531-10.679688 3.535156-2.449218 7.863281-3.34375 12.207031-2.550781l46.664063 8.648437c8.960937 1.660157 14.703125 10.046876 13.078125 19.085938l-3.75 20.832031c.527344.34375 1.023437.695313 1.488281 1.046875l.597656.394532 17.304688-12.167969c3.136719-2.386719 7.511719-3.449219 11.738281-2.761719 4.375.710938 8.3125 3.230469 10.808594 6.914062l26.8125 39.726563c2.335937 3.167969 3.34375 7.433594 2.648437 11.734375-.710937 4.34375-3.167969 8.28125-6.742187 10.800781l-17.472656 12.273438c.070312.320312.144531.632812.222656.925781l.175781.785156c.058594.3125.113281.625.160156.945313l20.441407 3.789062c8.191406 1.523438 13.929687 9.105469 13.65625 18.011719l-.128907 1.167969-8.566406 47.671875c-.800781 4.421875-3.191406 8.207031-6.769531 10.679687-3.550782 2.445313-7.871094 3.320313-12.214844 2.542969l-20.28125-3.769531c-.320312.503906-.648438.984375-.976562 1.433593l-.503907.808594 12.074219 17.757813c2.359375 3.210937 3.367188 7.480469 2.65625 11.785156-.714844 4.34375-3.167969 8.273437-6.753906 10.785156l-39.113282 27.496094c-3.132812 2.390625-7.492187 3.460937-11.734374 2.765625-4.367188-.71875-8.304688-3.230469-10.808594-6.902344l-11.949219-17.585937c-.523437.105469-1.035156.203125-1.53125.296875-.285156.046875-.566406.105468-.863281.144531l-3.75 20.863281c-.792969 4.417969-3.183594 8.199219-6.753906 10.671875-2.710938 1.855469-5.871094 2.824219-9.152344 2.824219zm-60.613282-70.414062 4.742188 4.398437c.816406.753906 1.753906 1.320313 2.6875 1.9375l1.832031 1.214844c.800781.59375 1.984375 1.398437 4.304688 2.472656l5.617187 2.589844-5.847656 32.570312 47.132812 9.207031 5.992188-31.929687 5.058594-1.238281c1.648437-.398438 3.261718-.617188 4.824218-.808594.65625-.085938 1.292969-.160156 1.910157-.269531.96875-.179688 3.320312-.617188 4.832031-1.21875l5.976562-2.398438 18.808594 27.648438 39.214844-27.449219-18.640625-27.96875 4.167969-4.664062c.746094-.832032 1.304687-1.792969 1.914062-2.75l1.199219-1.855469c.582031-.808594 1.382813-2.035157 2.464844-4.425781l2.566406-5.742188 32.230469 5.972656 8.746094-47.261718c-.070313-.816407-.417969-1.304688-.566407-1.335938l-31.167969-5.785156-1.195312-5.070313c-.398438-1.65625-.597656-3.273437-.789062-4.824219-.066407-.570312-.128907-1.136718-.210938-1.671874-.214844-.824219-.40625-1.6875-.582031-2.578126-.191407-.910156-.351563-1.863281-.679688-2.71875l-2.296875-5.839843 27.113282-19.054688-26.761719-40.203125-27.351563 19.136719-4.742187-4.398437c-.816407-.753907-1.753907-1.320313-2.691407-1.9375l-1.832031-1.214844c-.796875-.59375-1.992187-1.410156-4.300781-2.472656l-5.625-2.582032 5.855469-32.578125-46.902344-9.167969-5.984375 31.914063-5.035156 1.246094c-1.652344.40625-3.261719.625-4.820313.816406-.546875.070313-1.082031.136719-1.59375.214844-.824219.21875-1.6875.417969-2.558593.601562-.875.183594-1.785157.34375-2.585938.664063l-5.992188 2.449218-18.824218-27.683593-39.214844 27.441406 18.648438 27.984375-4.191407 4.664062c-.738281.824219-1.289062 1.769532-1.890625 2.71875l-1.207031 1.875c-.582031.804688-1.382813 2.03125-2.464844 4.421876l-2.566406 5.746093-32.230469-5.976562-8.875 48 30.9375 6.207031 1.214844 5.054688c.402344 1.671874.609375 3.296874.800781 4.863281.078125.671875.160157 1.328125.265625 1.960937.167969.953125.589844 3.394532 1.207032 4.984375l2.261718 5.777344-26.566406 19.152344 26.886719 40.277343zm0 0" fill="#1c7fff"/><path d="m396.625 326.183594c-7.03125-10.34375-17.816406-18.054688-30.953125-20.496094-13.136719-2.429688-25.910156.914062-36.085937 8.066406-10.1875 7.152344-17.769532 18.117188-20.171876 31.480469-2.398437 13.359375.882813 26.34375 7.914063 36.6875s17.816406 18.054687 30.953125 20.496094c13.132812 2.429687 25.910156-.914063 36.085938-8.066407 10.183593-7.152343 17.769531-18.117187 20.167968-31.480468 2.402344-13.351563-1.101562-26.382813-7.910156-36.6875zm0 0" fill="#fff"/><path d="m356.847656 411.207031c-3.335937 0-6.6875-.300781-10.023437-.917969-14.679688-2.726562-27.503907-11.191406-36.128907-23.855468-8.574218-12.632813-11.832031-27.769532-9.167968-42.601563 2.679687-14.863281 11.007812-27.863281 23.449218-36.617187 12.488282-8.773438 27.464844-12.078125 42.160157-9.382813 14.6875 2.730469 27.503906 11.199219 36.109375 23.863281l.066406.089844c8.488281 12.847656 11.71875 27.953125 9.113281 42.503906-2.683593 14.855469-11 27.855469-23.449219 36.609376-9.65625 6.78125-20.792968 10.308593-32.128906 10.308593zm.28125-98.300781c-8.082031 0-16.03125 2.527344-22.945312 7.398438-8.976563 6.304687-14.976563 15.664062-16.894532 26.359374-1.921874 10.6875.445313 21.617188 6.65625 30.777344 6.191407 9.101563 15.359376 15.175782 25.808594 17.121094 10.398438 1.917969 21.078125-.464844 30.023438-6.753906 8.976562-6.304688 14.976562-15.664063 16.894531-26.351563 1.878906-10.472656-.496094-21.417969-6.6875-30.816406-6.175781-9.078125-15.328125-15.144531-25.769531-17.078125-2.367188-.433594-4.726563-.65625-7.085938-.65625zm0 0" fill="#1c7fff"/></svg>