<svg id="Layer_1" viewBox="0 0 64 64" xmlns="http://www.w3.org/2000/svg" data-name="Layer 1"><path d="m60.2089844 25.8886719h-4.65625c-.5654297-2.1845703-1.4326172-4.2758789-2.5791016-6.2202148l3.2939453-3.293457c.3388672-.3383789.5253906-.7885742.5253906-1.2675781s-.1875-.9287109-.5253906-1.265625l-6.109375-6.1098633c-.6982422-.6992188-1.8359375-.6982422-2.5322266 0l-3.2939453 3.2939453c-1.9453125-1.1464844-4.0371094-2.0131836-6.2207031-2.578125v-4.6567384c0-.987793-.8037109-1.7910156-1.7910156-1.7910156h-8.640625c-.9873047 0-1.7910156.8032227-1.7910156 1.7910156v4.6567383c-2.1826172.5649414-4.2734375 1.4316406-6.2207031 2.578125l-3.2939453-3.2939453c-.6982422-.6992188-1.8359375-.6982422-2.5322266 0l-6.1083984 6.1088867c-.3388672.3378906-.5263672.7875977-.5263672 1.2666016s.1865234.9291992.5253906 1.2670898l3.2939453 3.2939453c-1.1464844 1.9448242-2.0136719 4.0361328-2.5791016 6.2202148h-4.65625c-.9873047 0-1.7910156.8032227-1.7910156 1.7910156v8.6401367c0 .987793.8037109 1.7915039 1.7910156 1.7915039h4.65625c.5654297 2.1845703 1.4326172 4.2758789 2.5791016 6.2202148l-3.2939453 3.293457c-.3388672.3383789-.5253906.7885742-.5253906 1.2675781s.1875.9287109.5253906 1.265625l6.109375 6.1098633c.6982422.6987305 1.8359375.6967773 2.5322266 0l3.2939453-3.2939453c1.9472656 1.1464844 4.0380859 2.0131836 6.2207031 2.578125v4.6567383c0 .987793.8037109 1.7910156 1.7910156 1.7910156h8.640625c.9873047 0 1.7910156-.8032227 1.7910156-1.7910156v-4.6567383c2.1826172-.5649414 4.2734375-1.4316406 6.2207031-2.578125l3.2939453 3.2939453c.6972656.6987305 1.8349609.6967773 2.5322266 0l6.1083984-6.1088867c.3388672-.3378906.5263672-.7875977.5263672-1.2666016s-.1865234-.9291992-.5253906-1.2670898l-3.2939453-3.2939453c1.1464844-1.9448242 2.0136719-4.0361328 2.5791016-6.2202148h4.65625c.9873047 0 1.7910156-.8037109 1.7910156-1.7915039v-8.6401367c0-.987793-.8037109-1.7910156-1.7910156-1.7910156zm-.2089844 10.2226562h-4.6171875c-.8173828 0-1.5283203.5581055-1.7304688 1.3574219-.5292969 2.1025391-1.3623047 4.1123047-2.4765625 5.9736328-.4228516.7070312-.3134766 1.6049805.2646484 2.1835938l3.265625 3.265625-5.8144531 5.8144531-3.265625-3.2661133c-.578125-.578125-1.4765625-.6870117-2.1826172-.2641602-1.8642578 1.1142578-3.8740234 1.9472656-5.9746094 2.4765625-.7988281.2006836-1.3574219.9121094-1.3574219 1.7299805v4.6176758h-8.2226562v-4.621582c0-.8154297-.5566406-1.5249023-1.3535156-1.7250977-2.1015625-.5288086-4.1132812-1.3623047-5.9775391-2.4770508-.7060547-.4233398-1.6044922-.3149414-2.1835938.2636719l-3.265625 3.2661133-5.8144531-5.8144531 3.265625-3.265625c.578125-.5786133.6875-1.4765625.2646484-2.184082-1.1142578-1.8608398-1.9472656-3.8706055-2.4765625-5.9736328-.2021484-.7988281-.9130859-1.3569336-1.7304688-1.3569336h-4.6171873v-8.2226562h4.6171875c.8173828 0 1.5283203-.5581055 1.7304688-1.3574219.5292969-2.1025391 1.3623047-4.1123047 2.4765625-5.9736328.4228516-.7070312.3134766-1.6049805-.2646484-2.1835938l-3.265625-3.265625 5.8144531-5.8144531 3.265625 3.2661133c.578125.5776367 1.4775391.6879883 2.1826172.2641602 1.8642578-1.1142578 3.8740234-1.9472656 5.9746094-2.4765625.7988281-.2006836 1.3574219-.9125977 1.3574219-1.7304688v-4.6171876h8.2226562v4.621582c0 .8154297.5566406 1.5249023 1.3535156 1.7250977 2.1035156.5292969 4.1142578 1.362793 5.9775391 2.4770508.7060547.4238281 1.6044922.3154297 2.1835938-.2636719l3.265625-3.2661133 5.8144531 5.8144531-3.265625 3.265625c-.578125.5786133-.6875 1.4765625-.2646484 2.184082 1.1142578 1.8608398 1.9472656 3.8706055 2.4765625 5.9736328.2021484.7988281.9130859 1.3569336 1.7304688 1.3569336h4.6171875v8.2226562z"/><path d="m20.2148438 20.2148438c-6.4257812 6.4262695-6.486084 16.8303833-.2032471 23.3453369.0163574.0199585.0330811.0376587.0509033.0562744.0532227.0547485.0981445.114502.1523438.1687012 3.2490234 3.2495117 7.5175781 4.8740234 11.7851562 4.8740234s8.5361328-1.6245117 11.7851562-4.8740234c.0541992-.0541992.0991211-.1139526.1523438-.1687012.0178223-.0186157.0345459-.0363159.0509033-.0562744 6.2828369-6.5149536 6.2225342-16.9190674-.2032471-23.3453369-6.4980469-6.4990234-17.0722656-6.4990234-23.5703125 0zm1.6130371 22.3360596c.498291-4.34021 4.1932373-7.6807861 8.6125488-7.6807861h3.1191406c4.4193115 0 8.1142578 3.3405762 8.6125488 7.6807861-5.668457 5.4658203-14.6757812 5.4658203-20.3442383 0zm10.1721191-9.6807861c-2.4257812 0-4.3984375-1.9731445-4.3984375-4.3979492s1.9726562-4.3979492 4.3984375-4.3979492 4.3984375 1.9731445 4.3984375 4.3979492-1.9726562 4.3979492-4.3984375 4.3979492zm11.8299561 7.770874c-1.0289307-3.6325684-3.9310303-6.456604-7.5662842-7.4118652 1.3066406-1.1722412 2.1347656-2.8676147 2.1347656-4.756958 0-3.527832-2.8701172-6.3979492-6.3984375-6.3979492s-6.3984375 2.8701172-6.3984375 6.3979492c0 1.8893433.828125 3.5847168 2.1347656 4.756958-3.6352539.9552612-6.5373535 3.7792969-7.5662842 7.4118652-4.1915283-5.7334595-3.7164307-13.836853 1.4588623-19.012085 2.859375-2.859375 6.6152344-4.2890625 10.3710938-4.2890625s7.5117188 1.4296875 10.3710938 4.2890625c5.175293 5.1752319 5.6503906 13.2786255 1.4588623 19.012085z"/></svg>